<?xml version="1.0" standalone="no"?>
<!DOCTYPE svg PUBLIC "-//W3C//DTD SVG 1.1//EN" "http://www.w3.org/Graphics/SVG/1.1/DTD/svg11.dtd" >
<svg>
<metadata>
Created by FontForge 20120731 at Sun May 29 17:06:31 2016
 By www
Copyright (c) 1988, 1990, 1991, 1994, 2002 Adobe Systems Incorporated.  All Rights Reserved. (c) 1981, 2002 Heidelberger Druckmaschinen AG. All rights reserved.
</metadata>
<defs>
<font id="Caslon3LTW01-Roman" horiz-adv-x="556" >
  <font-face 
    font-family="Caslon3LTW01-Roman"
    font-weight="400"
    font-stretch="normal"
    units-per-em="1000"
    panose-1="2 5 7 3 7 5 6 2 4 3"
    ascent="770"
    descent="-230"
    x-height="444"
    cap-height="728"
    bbox="-56 -250 1004 980"
    underline-thickness="50"
    underline-position="-100"
    unicode-range="U+0020-2122"
  />
<missing-glyph horiz-adv-x="0" 
 />
    <glyph glyph-name=".notdef" horiz-adv-x="0" 
 />
    <glyph glyph-name=".null" horiz-adv-x="0" 
 />
    <glyph glyph-name="nonmarkingreturn" horiz-adv-x="333" 
 />
    <glyph glyph-name="space" unicode=" " horiz-adv-x="278" 
 />
    <glyph glyph-name="exclam" unicode="!" horiz-adv-x="333" 
d="M147 199q-5 91 -19.5 181t-34.5 179q-7 32 -7 66q0 20 3.5 40.5t12.5 37.5t24.5 28t39.5 11t39.5 -11t24.5 -28t12.5 -37.5t3.5 -40.5q0 -34 -7 -66q-20 -89 -34.5 -179t-19.5 -181h-38zM243 63q0 -32 -22.5 -54.5t-54.5 -22.5t-54.5 22.5t-22.5 54.5t22.5 54.5
t54.5 22.5t54.5 -22.5t22.5 -54.5z" />
    <glyph glyph-name="quotedbl" unicode="&#x22;" horiz-adv-x="333" 
d="M108 457q-1 -6 -4.5 -18.5t-17.5 -12.5t-17.5 12.5t-4.5 18.5l-18 204q-1 9 -1 23t3 27t12 22t26 9t26 -9t12 -22t3 -27t-1 -23zM269 457q-1 -6 -4.5 -18.5t-17.5 -12.5t-17.5 12.5t-4.5 18.5l-18 204q-1 9 -1 23t3 27t12 22t26 9t26 -9t12 -22t3 -27t-1 -23z" />
    <glyph glyph-name="numbersign" unicode="#" 
d="M495 223h-99l-30 -223h-72l30 223h-119l-30 -223h-72l30 223h-100v69h109l20 144h-100v69h109l29 223h73l-30 -223h119l29 223h73l-30 -223h90v-69h-99l-20 -144h90v-69zM235 436l-19 -144h119l19 144h-119z" />
    <glyph glyph-name="dollar" unicode="$" 
d="M247 715q-23 -1 -43 -9t-35 -22t-23.5 -33.5t-8.5 -41.5q0 -24 10 -42.5t25.5 -33.5t35 -27t39.5 -22v231zM295 15q57 3 87 40.5t30 91.5q0 28 -10 49t-26.5 37t-37.5 29t-43 25v-272zM295 460q45 -24 83.5 -47t67 -53t45 -69.5t16.5 -94.5q0 -47 -15.5 -85t-44 -65
t-67.5 -42t-85 -18v-106h-48v106q-34 0 -70.5 6.5t-67 22t-50 42t-19.5 66.5q0 29 16.5 47.5t41.5 18.5q20 0 33 -9.5t21 -23.5t12 -30.5t6 -29.5q2 -17 7 -32.5t13.5 -26.5t22.5 -17.5t34 -6.5v303q-34 20 -71 43.5t-67.5 52t-50 64t-19.5 79.5q0 43 15 75.5t42.5 55.5
t66 37t84.5 19v66h48v-66q31 -2 64 -10t61 -23t46 -38t18 -55q0 -29 -18 -42.5t-45 -13.5q-29 0 -45.5 22.5t-17.5 48.5q-1 20 -3 34.5t-8 25t-18 16.5t-34 9v-256z" />
    <glyph glyph-name="percent" unicode="%" horiz-adv-x="889" 
d="M557 82q0 -39 19 -52.5t45 -13.5q36 0 65.5 24t51.5 58.5t34 73.5t12 70q0 15 -3.5 32t-11 31t-20.5 23.5t-31 9.5q-32 0 -61 -30.5t-51.5 -72.5t-35.5 -85t-13 -68zM263 -14h-59l376 671l-2 2q-21 -21 -54.5 -30.5t-62.5 -9.5q-26 0 -50 6q2 -9 4 -17.5t2 -17.5
q0 -41 -16 -86.5t-45 -83t-69 -62t-88 -24.5q-58 0 -96 33t-38 96q0 44 19 90.5t50.5 84.5t73.5 62.5t88 24.5q33 0 51.5 -9.5t29.5 -21.5q6 -8 11 -16t13 -17q13 -5 30.5 -8t38.5 -3q45 0 86.5 25.5t71.5 66.5h56zM458 123q0 41 20.5 85t53.5 80t75 59.5t84 23.5
q30 0 52.5 -10t37.5 -28t22.5 -42t7.5 -52q0 -42 -16.5 -87t-45 -82t-68.5 -60.5t-86 -23.5q-65 0 -101 37t-36 100zM164 423q0 -21 13 -40t36 -19q37 0 69.5 21.5t56.5 55t37.5 74t13.5 78.5q0 18 -6 45q-18 12 -36 25t-32 29q-19 0 -38 -15.5t-36 -39.5t-31 -54.5
t-24.5 -60t-16.5 -56t-6 -43.5z" />
    <glyph glyph-name="ampersand" unicode="&#x26;" horiz-adv-x="778" 
d="M181 225q0 -33 7 -65t22 -58t39.5 -44.5t60.5 -24.5q37 -3 67 14.5t53 45.5q-12 27 -31 60.5t-40.5 69.5t-42.5 72t-38 66q-45 -14 -71 -51t-26 -85zM390 471q35 25 51.5 56.5t16.5 74.5q0 22 -5 42t-16.5 36t-28.5 25.5t-41 9.5q-31 0 -46 -24.5t-15 -51.5
q0 -21 8 -44.5t20 -46t27 -43t29 -34.5zM707 455v-27q-36 -5 -55.5 -19.5t-35.5 -45.5l-78 -152q10 -24 19 -50t19.5 -47.5t23.5 -35.5t32 -14q16 0 27 9t18.5 21.5t13.5 27t11 26.5l19 -3q-6 -30 -19.5 -58.5t-33.5 -51t-46.5 -36t-60.5 -13.5q-46 0 -73.5 19.5t-45.5 59.5
q-39 -38 -85 -58.5t-103 -20.5q-41 0 -77 10t-62.5 31t-42 53.5t-15.5 77.5q0 46 16 83.5t44 67t65 50.5t78 33q-15 23 -26.5 43t-19 40t-11.5 42t-4 51q0 34 10.5 65.5t30.5 55.5t49 38.5t66 14.5q72 0 115.5 -40t43.5 -115q0 -54 -30.5 -88t-75.5 -57q30 -50 61 -97.5
t54 -101.5q4 11 14 29t19.5 37.5t17 37.5t7.5 29q0 17 -4.5 26t-13 13.5t-20.5 7t-26 5.5v27h190z" />
    <glyph glyph-name="quotesingle" unicode="'" horiz-adv-x="222" 
d="M133 457q-1 -6 -4.5 -18.5t-17.5 -12.5t-17.5 12.5t-4.5 18.5l-18 204q-1 9 -1 23t3 27t12 22t26 9t26 -9t12 -22t3 -27t-1 -23z" />
    <glyph glyph-name="parenleft" unicode="(" horiz-adv-x="389" 
d="M324 719q-57 -39 -90 -87.5t-50 -103.5t-21.5 -115t-4.5 -123q0 -47 8.5 -103t28 -109.5t51 -98t78.5 -68.5v-23q-59 19 -109 63t-86.5 101.5t-57 122.5t-20.5 125q0 62 18.5 131t54 131.5t86 110.5t114.5 69v-23z" />
    <glyph glyph-name="parenright" unicode=")" horiz-adv-x="389" 
d="M65 -89q47 24 78.5 68.5t51 98t28 109.5t8.5 103q0 63 -4.5 123t-21.5 115t-50 103.5t-90 87.5v23q64 -21 114.5 -69t86 -110.5t54 -131.5t18.5 -131q0 -60 -20.5 -125t-57 -122.5t-86.5 -101.5t-109 -63v23z" />
    <glyph glyph-name="asterisk" unicode="*" horiz-adv-x="500" 
d="M257 302q-23 0 -36.5 17t-13.5 34q0 25 13 47t22 51q3 10 3.5 20.5t0.5 22.5q-5 1 -11 7q-13 -6 -21.5 -12t-16 -14t-15.5 -19t-19 -27q-12 -19 -28 -30t-33 -11q-23 0 -36 14t-13 37q0 27 21.5 40t52.5 13q37 0 59 5.5t41 19.5q-2 2 -1.5 4.5t1.5 4.5q-19 14 -41 19.5
t-59 5.5q-31 0 -52.5 13t-21.5 40q0 23 13 37t36 14q17 0 33 -11t28 -30q11 -16 19 -27t15.5 -19t16 -14t21.5 -12q3 4 9 8q0 12 -0.5 22.5t-3.5 20.5q-9 29 -22 51t-13 47q0 17 13.5 34t36.5 17t36.5 -17t13.5 -34q0 -25 -13 -47t-22 -51q-3 -10 -3.5 -20.5t-0.5 -22.5
q6 -3 10 -7q13 6 21.5 12t16 14t15.5 19t19 27q12 19 28 30t33 11q23 0 36 -14t13 -37q0 -27 -21.5 -40t-52.5 -13q-37 0 -59 -5.5t-41 -19.5q3 -7 -1 -15q19 -14 41 -19.5t59 -5.5q31 0 52.5 -13t21.5 -40q0 -23 -13 -37t-36 -14q-17 0 -33 11t-28 30q-11 16 -19 27
t-15.5 19t-16 14t-21.5 12q-9 0 -7 -2q0 -12 0.5 -22.5t3.5 -20.5q9 -29 22 -51t13 -47q0 -17 -13.5 -34t-36.5 -17z" />
    <glyph glyph-name="plus" unicode="+" horiz-adv-x="600" 
d="M264 444h72v-186h185v-72h-185v-186h-72v186h-185v72h185v186z" />
    <glyph glyph-name="comma" unicode="," horiz-adv-x="278" 
d="M75 -141q3 3 14.5 15t24 28t22 32t9.5 28q0 11 -13 18.5t-29 18.5q-15 11 -27.5 27t-12.5 43q-1 29 17 48t46 22q48 0 69 -27.5t21 -66.5q0 -66 -35.5 -118t-88.5 -88z" />
    <glyph glyph-name="hyphen" unicode="-" horiz-adv-x="333" 
d="M44 170v104h245v-104h-245z" />
    <glyph glyph-name="period" unicode="." horiz-adv-x="278" 
d="M216 63q0 -32 -22.5 -54.5t-54.5 -22.5t-54.5 22.5t-22.5 54.5t22.5 54.5t54.5 22.5t54.5 -22.5t22.5 -54.5z" />
    <glyph glyph-name="slash" unicode="/" horiz-adv-x="278" 
d="M217 742h77l-235 -756h-75z" />
    <glyph glyph-name="zero" unicode="0" 
d="M278 13q32 0 52 21t31 64t15 109.5t4 156.5t-4 156.5t-15 109.5t-31 64t-52 21t-52 -21t-31 -64t-15 -109.5t-4 -156.5t4 -156.5t15 -109.5t31 -64t52 -21zM278 -14q-47 0 -82.5 18t-62 47.5t-44 68.5t-28 81t-15 84t-4.5 79q0 36 4.5 78.5t15 84.5t28 81t44 68.5
t62 47.5t82.5 18t82.5 -18t62 -47.5t44 -68.5t28 -81t15 -84.5t4.5 -78.5t-4.5 -78.5t-15 -84.5t-28 -81t-44 -68.5t-62 -47.5t-82.5 -18z" />
    <glyph glyph-name="one" unicode="1" 
d="M222 596q0 13 -3.5 21.5t-14.5 13t-31.5 6t-54.5 1.5v27q45 6 79.5 15.5t60.5 20.5t43.5 22t28.5 19h20v-648q0 -16 5 -28t19.5 -20.5t39.5 -13t65 -5.5v-27h-379v27q37 1 61 5.5t37.5 13t18.5 20.5t5 28v502z" />
    <glyph glyph-name="two" unicode="2" 
d="M37 0q-2 51 14 93.5t42 79t60 69t68 64.5q22 20 47.5 44t48 51.5t37.5 58t15 63.5q0 25 -9 48t-25.5 40t-40 27.5t-52.5 10.5t-57 -12t-53.5 -32.5t-48 -47t-40.5 -55.5l-20 7q16 48 39.5 90t56 74t74.5 50.5t96 18.5q45 0 83.5 -14.5t66.5 -41.5t44 -65t16 -84
q0 -58 -24 -100.5t-61 -75.5t-83 -60t-89 -52q-18 -11 -40 -24.5t-42.5 -31t-36.5 -37.5t-22 -44h279q25 0 41.5 3t28 10.5t19.5 19.5t16 31l23 -10l-52 -166h-419z" />
    <glyph glyph-name="three" unicode="3" 
d="M156 416q27 0 58 7.5t57.5 23t44 39t17.5 55.5q0 25 -9.5 45.5t-25.5 34t-38 21t-46 7.5q-38 0 -70.5 -24.5t-49.5 -57.5l-21 7q21 78 70 123t132 45q35 0 66 -10.5t54 -31t36.5 -49.5t13.5 -65q0 -29 -13 -53t-33.5 -42.5t-45.5 -32t-50 -22.5v-2q37 -9 71 -30
t60.5 -50.5t42 -65t15.5 -73.5q0 -57 -16 -100t-46 -71.5t-72 -43t-93 -14.5q-28 0 -69 4t-79.5 17t-65.5 38.5t-27 69.5q0 23 17.5 42t44.5 19q20 0 33 -7t22 -18.5t15 -26t12 -29.5t13 -30t18.5 -26.5t27.5 -18.5t40 -7q28 0 49.5 15t35.5 37.5t21 49.5t7 51
q0 44 -20 80.5t-52 65t-72 49t-80 31.5v24z" />
    <glyph glyph-name="four" unicode="4" 
d="M283 314v257h-2l-203 -257h205zM411 0h-128v248h-246v72l341 422h33v-428h98v-66h-98v-248z" />
    <glyph glyph-name="five" unicode="5" 
d="M109 728h320q14 0 28 3t26 11l8 -4l-60 -122h-300l-12 -119q70 -8 139 -24.5t123 -48t87.5 -81.5t33.5 -125q0 -50 -16 -92.5t-47 -73.5t-76 -48.5t-103 -17.5q-32 0 -71 4.5t-74 18.5t-58.5 39.5t-23.5 67.5q-1 29 16.5 49t49.5 20q21 0 36 -8.5t25 -22t14.5 -30
t4.5 -31.5q0 -16 3.5 -30.5t13.5 -25.5t26.5 -17.5t42.5 -6.5q31 0 58 11.5t47 31.5t31.5 47t11.5 57q0 60 -36 99.5t-89 62.5t-112.5 32t-106.5 6z" />
    <glyph glyph-name="six" unicode="6" 
d="M176 391q-9 -34 -14.5 -69t-5.5 -70q0 -33 3.5 -74t16 -78t38 -62t69.5 -25q34 0 55 18.5t31.5 46t14 58.5t3.5 56q0 30 -3.5 69.5t-16 74.5t-37 59t-65.5 24q-24 0 -46 -8.5t-43 -19.5zM471 725q-51 -19 -96.5 -50t-83.5 -71t-67.5 -86.5t-47.5 -96.5l2 -2q10 8 24 14.5
t30 11t31.5 7t29.5 2.5q50 0 91 -17t70 -47.5t44.5 -72.5t15.5 -91q0 -54 -17 -98.5t-48.5 -76t-76 -48.5t-98.5 -17q-61 0 -105 23t-72.5 62t-42 90t-13.5 106q0 101 32.5 178t90 134.5t136 97t169.5 65.5z" />
    <glyph glyph-name="seven" unicode="7" 
d="M148 728h368v-52q-100 -150 -158 -324t-81 -352h-138q15 86 45.5 165t71 153t89 144t99.5 139v15h-238q-39 0 -69.5 -8.5t-48.5 -41.5l-19 7z" />
    <glyph glyph-name="eight" unicode="8" 
d="M192 346q-15 -16 -29 -37.5t-24 -45t-16 -48.5t-6 -48q0 -75 37.5 -114.5t114.5 -39.5q30 0 56.5 7.5t46 22.5t30.5 38.5t11 55.5q0 40 -24.5 70.5t-59 55t-72.5 44.5t-65 39zM340 422q43 25 62 64t19 87q0 64 -37 103t-103 39q-55 0 -91.5 -27.5t-36.5 -85.5
q0 -33 19.5 -60.5t48 -50t61 -39.5t58.5 -30zM516 193q0 -54 -20 -93t-54.5 -64.5t-79.5 -37.5t-94 -12q-44 0 -85 11t-72.5 33.5t-50.5 57.5t-19 83q0 64 36.5 112.5t87.5 81.5v2q-21 13 -40 33.5t-34 45t-24 51t-9 52.5q0 51 20 88t52.5 60t74.5 34t86 11q36 0 73 -12.5
t66.5 -35.5t48 -55t18.5 -71q0 -30 -10.5 -54.5t-28 -44.5t-40 -36t-46.5 -29q30 -15 56.5 -37t46 -49t30.5 -59t11 -66z" />
    <glyph glyph-name="nine" unicode="9" 
d="M381 491q0 28 -3 66.5t-14.5 73.5t-34 59.5t-62.5 24.5q-38 0 -60.5 -22.5t-33.5 -55.5t-14 -69t-3 -63q0 -32 6 -67.5t21.5 -65.5t41.5 -49.5t66 -19.5q30 0 47.5 8t27 29t12.5 57.5t3 93.5zM62 5q49 15 97 40.5t88 61t69 80.5t40 99q-23 -8 -48 -13t-49 -5
q-105 0 -161.5 61.5t-56.5 164.5q0 54 16.5 99.5t47.5 78.5t75 51.5t99 18.5q61 0 104.5 -24.5t71.5 -64.5t40.5 -92t12.5 -107q0 -106 -34 -184t-93.5 -133.5t-139.5 -92t-173 -58.5z" />
    <glyph glyph-name="colon" unicode=":" horiz-adv-x="278" 
d="M216 63q0 -32 -22.5 -54.5t-54.5 -22.5t-54.5 22.5t-22.5 54.5t22.5 54.5t54.5 22.5t54.5 -22.5t22.5 -54.5zM216 381q0 -32 -22.5 -54.5t-54.5 -22.5t-54.5 22.5t-22.5 54.5t22.5 54.5t54.5 22.5t54.5 -22.5t22.5 -54.5z" />
    <glyph glyph-name="semicolon" unicode=";" horiz-adv-x="278" 
d="M75 -141q3 3 14.5 15t24 28t22 32t9.5 28q0 11 -13 18.5t-29 18.5q-15 11 -27.5 27t-12.5 43q-1 29 17 48t46 22q48 0 69 -27.5t21 -66.5q0 -66 -35.5 -118t-88.5 -88zM216 381q0 -32 -22.5 -54.5t-54.5 -22.5t-54.5 22.5t-22.5 54.5t22.5 54.5t54.5 22.5t54.5 -22.5
t22.5 -54.5z" />
    <glyph glyph-name="less" unicode="&#x3c;" horiz-adv-x="600" 
d="M554 -39l-508 225v72l508 225v-82l-404 -179l404 -179v-82z" />
    <glyph glyph-name="equal" unicode="=" horiz-adv-x="600" 
d="M521 275h-442v72h442v-72zM521 97h-442v72h442v-72z" />
    <glyph glyph-name="greater" unicode="&#x3e;" horiz-adv-x="600" 
d="M450 222l-404 179v82l508 -225v-72l-508 -225v82z" />
    <glyph glyph-name="question" unicode="?" 
d="M188 199l-33 271l14 7q33 -29 74 -47.5t86 -18.5q32 0 60.5 8t49.5 25t33.5 42t12.5 60q0 34 -12 60.5t-32.5 44.5t-48.5 27.5t-60 9.5q-26 0 -52 -17t-41 -37q-11 -15 -21 -30t-21.5 -26.5t-26 -19t-35.5 -7.5q-34 0 -53.5 20t-19.5 54q0 36 23.5 59t56.5 36t69 17.5
t62 4.5q52 0 98 -14.5t79.5 -43.5t53 -72t19.5 -99q0 -103 -57 -156t-159 -51q-18 0 -35.5 2t-35.5 5l-15 -114h-33zM279 63q0 -32 -22.5 -54.5t-54.5 -22.5t-54.5 22.5t-22.5 54.5t22.5 54.5t54.5 22.5t54.5 -22.5t22.5 -54.5z" />
    <glyph glyph-name="at" unicode="@" horiz-adv-x="800" 
d="M516 436q0 70 -46 70q-19 0 -43.5 -14.5t-46 -40.5t-36.5 -64t-15 -84q0 -47 18 -68.5t43 -21.5q18 0 38 13.5t37.5 41.5t31 69.5t19.5 98.5zM547 545h77l-68 -274q-2 -7 -2.5 -19t2.5 -23.5t11.5 -20t24.5 -8.5q29 0 53 21t41 53t26.5 70.5t9.5 73.5q0 46 -20.5 95
t-59 89t-95 65.5t-128.5 25.5q-57 0 -110.5 -21.5t-95 -66t-66.5 -111.5t-25 -158q0 -59 23.5 -112.5t64.5 -94.5t97 -65t122 -24q36 0 66 4t55.5 11t48.5 17t47 21l13 -42q-52 -26 -108 -45.5t-121 -19.5q-107 0 -185 35.5t-128 89.5t-74 117.5t-24 118.5q0 88 32 161
t86.5 125t127.5 80.5t154 28.5q76 0 141.5 -24.5t114 -67.5t76.5 -102.5t28 -128.5q0 -42 -13.5 -88t-39.5 -84.5t-64 -63.5t-87 -25q-27 0 -46 10t-30.5 23.5t-16.5 26.5t-5 19h-2q-4 -7 -15.5 -20t-28 -26t-37.5 -22.5t-45 -9.5q-13 0 -31 4.5t-34.5 19t-28.5 41t-12 70.5
q0 21 6 49t17.5 57.5t29.5 58t42 51t54 36.5t67 14q18 0 30 -5t20.5 -13t14.5 -17.5t11 -19.5z" />
    <glyph glyph-name="A" unicode="A" horiz-adv-x="889" 
d="M19 0v27q30 6 49.5 16t35.5 28t30 46t33 70l188 419q-4 10 -8.5 20t-12.5 13q25 21 49.5 43.5t44.5 48.5q5 7 8 9t6 2q4 0 6.5 -3.5t9.5 -17.5l301 -621q10 -22 20.5 -35.5t23 -21t29 -11t39.5 -5.5v-27h-352v27q52 0 70.5 11.5t18.5 29.5q0 17 -11 38.5t-18 35.5l-37 75
h-322l-31 -74q-10 -23 -16.5 -43.5t-6.5 -29.5q0 -20 21 -31.5t66 -11.5v-27h-234zM233 252h289l-149 311z" />
    <glyph glyph-name="B" unicode="B" horiz-adv-x="778" 
d="M279 87q0 -22 9 -34t24 -18t34.5 -7t40.5 -1q89 0 130 41.5t41 129.5q0 51 -15.5 85.5t-44 55t-67.5 29t-85 8.5h-67v-289zM279 403h92q77 2 114.5 44.5t37.5 115.5q0 40 -11.5 66.5t-34.5 42.5t-59.5 22.5t-85.5 6.5q-18 0 -28.5 -1t-16 -5t-7 -12t-1.5 -23v-257z
M134 606q0 32 -2.5 51t-12 28.5t-28 12.5t-49.5 3v27h319q30 0 65 -2.5t69.5 -9t66 -18t56 -30.5t39 -46t14.5 -64q0 -38 -15 -67t-39.5 -49.5t-56.5 -33.5t-65 -19v-2q38 -8 77 -22t70.5 -37t51 -56t19.5 -79q0 -63 -28 -101t-72.5 -58.5t-99.5 -27t-110 -6.5h-361v27
q31 0 49.5 3t28 12.5t12 28.5t2.5 51v484z" />
    <glyph glyph-name="C" unicode="C" horiz-adv-x="833" 
d="M778 485h-32q-19 44 -48.5 85t-67 73.5t-82.5 52t-96 19.5q-80 0 -132 -28.5t-82.5 -76.5t-42 -112t-10.5 -134q0 -60 11 -122t37 -113t69.5 -83.5t109.5 -32.5q78 0 137.5 27.5t101.5 66t66.5 78t33.5 63.5h23v-262h-16q-13 20 -27 36.5t-32 16.5q-9 0 -37 -10t-60 -19
q-29 -8 -76.5 -16t-113.5 -8q-76 0 -145 29.5t-121.5 80.5t-84 120t-31.5 148t31.5 148t84 120t121.5 80.5t145 29.5q71 0 111 -7.5t67 -15.5q28 -9 52 -16.5t63 -7.5q25 0 33 11.5t15 25.5h25v-247z" />
    <glyph glyph-name="D" unicode="D" horiz-adv-x="889" 
d="M278 122q-1 -32 3 -51t17 -29t37 -12.5t63 -2.5q76 0 131.5 26t91.5 71.5t53.5 107t17.5 132.5t-20.5 132.5t-58.5 107t-92.5 71.5t-122.5 26q-44 0 -68 -1.5t-35.5 -5.5t-14 -11.5t-2.5 -18.5v-542zM446 728q78 0 150.5 -26t128 -73.5t89 -114.5t33.5 -150
q0 -84 -29 -151.5t-80 -114.5t-121 -72.5t-152 -25.5h-421v27q30 0 47.5 3t27 12.5t12 28.5t2.5 51v484q0 32 -2.5 51t-12 28.5t-27 12.5t-47.5 3v27h402z" />
    <glyph glyph-name="E" unicode="E" horiz-adv-x="778" 
d="M133 606q0 32 -2.5 51t-10 28.5t-22.5 12.5t-39 3v27h584l76 -191l-18 -7q-34 43 -63.5 75t-59.5 53.5t-63 32t-73 10.5h-164v-312h58q38 0 74.5 7t66.5 24t50 45t24 71h24v-339h-24q-4 42 -17 73.5t-38.5 51.5t-64.5 30t-95 10h-58v-286q0 -29 6 -39t32 -10h105
q62 0 102.5 10.5t71.5 33t57.5 57t61.5 83.5l22 -12l-56 -199h-621v27q24 0 39 3t22.5 12.5t10 28.5t2.5 51v484z" />
    <glyph glyph-name="F" unicode="F" horiz-adv-x="778" 
d="M736 542l-17 -6q-31 51 -69.5 83.5t-83 50.5t-95.5 24.5t-107 6.5q-28 0 -44 -1t-23.5 -5t-9.5 -12.5t-2 -22.5v-276h43q43 0 84.5 4t74.5 19t55.5 45t27.5 83h24v-320h-24q-7 49 -30.5 77t-57.5 42.5t-74 18.5t-80 4h-43v-235q0 -32 3 -51t14.5 -28.5t34.5 -12.5t62 -3
v-27h-361v27q35 0 55 3t30.5 12.5t13.5 28.5t3 51v484q0 32 -3 51t-13.5 28.5t-30.5 12.5t-55 3v27h627z" />
    <glyph glyph-name="G" unicode="G" horiz-adv-x="833" 
d="M815 336v-27q-32 0 -43 -11t-11 -37v-188q-30 -31 -73.5 -48.5t-91.5 -26t-96.5 -10.5t-87.5 -2q-76 0 -145 29.5t-121.5 80.5t-84 120t-31.5 148t31.5 148t84 120t121.5 80.5t145 29.5q63 0 106 -10t75 -23q29 -11 54.5 -21t46.5 -10q10 0 16 11.5t14 33.5h27v-239h-24
q-27 52 -57.5 94.5t-64 73t-72 47t-81.5 16.5q-80 0 -132 -28.5t-82.5 -76.5t-42 -112t-10.5 -134q0 -60 11 -122t37 -113t69.5 -83.5t109.5 -32.5q63 0 103.5 8.5t64.5 30.5t33 61t9 101q0 33 -3 52t-13.5 28.5t-31 12t-54.5 2.5v27h295z" />
    <glyph glyph-name="H" unicode="H" horiz-adv-x="944" 
d="M278 368v-246q0 -32 3 -51t13.5 -28.5t30.5 -12.5t55 -3v-27h-339v27q31 0 49.5 3t28 12.5t12 28.5t2.5 51v484q0 32 -2.5 51t-12 28.5t-28 12.5t-49.5 3v27h339v-27q-35 0 -55 -3t-30.5 -12.5t-13.5 -28.5t-3 -51v-203h389v203q0 32 -3 51t-13.5 28.5t-30.5 12.5t-55 3
v27h339v-27q-31 0 -49.5 -3t-28 -12.5t-12 -28.5t-2.5 -51v-484q0 -32 2.5 -51t12 -28.5t28 -12.5t49.5 -3v-27h-339v27q35 0 55 3t30.5 12.5t13.5 28.5t3 51v246h-389z" />
    <glyph glyph-name="I" unicode="I" horiz-adv-x="444" 
d="M150 606q0 32 -3 51t-13.5 28.5t-30.5 12.5t-55 3v27h349v-27q-35 0 -55 -3t-30.5 -12.5t-13.5 -28.5t-3 -51v-484q0 -32 3 -51t13.5 -28.5t30.5 -12.5t55 -3v-27h-349v27q35 0 55 3t30.5 12.5t13.5 28.5t3 51v484z" />
    <glyph glyph-name="J" unicode="J" horiz-adv-x="500" 
d="M226 606q0 32 -3 51t-13.5 28.5t-30.5 12.5t-55 3v27h328v-27q-27 0 -43 -3t-24.5 -12.5t-11 -28.5t-2.5 -51v-388q0 -52 -16.5 -95t-47 -73.5t-74 -47t-98.5 -16.5q-28 0 -55 6t-48.5 20t-35 36t-13.5 54q0 35 21 50.5t51 15.5q22 0 36 -11t21.5 -27.5t10.5 -34.5t5 -33
q3 -29 11 -39t28 -10q34 0 46.5 14.5t12.5 32.5v546z" />
    <glyph glyph-name="K" unicode="K" horiz-adv-x="778" 
d="M133 606q0 32 -3 51t-13.5 28.5t-30.5 12.5t-55 3v27h349v-27q-35 0 -55 -3t-30.5 -12.5t-13.5 -28.5t-3 -51v-268h2l204 255q4 5 11.5 15t14.5 21.5t12 23t5 19.5q0 20 -15.5 24.5t-45.5 4.5v27h225v-27q-35 -1 -56 -4t-38 -14t-35 -32t-46 -58l-111 -144l237 -331
q17 -24 30 -41t28 -28t35.5 -16.5t52.5 -5.5v-27h-234l-236 337l-40 -43v-172q0 -32 3 -51t13.5 -28.5t30.5 -12.5t55 -3v-27h-349v27q35 0 55 3t30.5 12.5t13.5 28.5t3 51v484z" />
    <glyph glyph-name="L" unicode="L" horiz-adv-x="778" 
d="M135 606q0 32 -3 51t-13.5 28.5t-30.5 12.5t-55 3v27h349v-27q-35 0 -55 -3t-30.5 -12.5t-13.5 -28.5t-3 -51v-484q0 -32 4 -50.5t16.5 -28.5t36 -13t61.5 -3q67 0 114.5 7.5t85 28t68.5 57.5t65 96l25 -3l-59 -213h-664v27q35 0 55 3t30.5 12.5t13.5 28.5t3 51v484z" />
    <glyph glyph-name="M" unicode="M" horiz-adv-x="1000" 
d="M451 -1h-17l-262 640h-2v-518q0 -27 9 -45t24.5 -29t36.5 -15.5t46 -4.5v-27h-252v27q48 3 73 26t25 68v545q0 12 -11.5 18.5t-27 10t-31 4.5t-23.5 2v27h250l212 -520l210 520h257v-27q-35 0 -55 -3t-30.5 -12.5t-13.5 -28.5t-3 -51v-484q0 -32 3 -51t13.5 -28.5
t30.5 -12.5t55 -3v-27h-349v27q35 0 55 3t30.5 12.5t13.5 28.5t3 51v528h-4z" />
    <glyph glyph-name="N" unicode="N" horiz-adv-x="944" 
d="M170 121q0 -27 9 -45t24.5 -29t36.5 -15.5t46 -4.5v-27h-252v27q48 3 73 26t25 68v545q0 12 -11.5 18.5t-27 10t-31 4.5t-23.5 2v27h269l469 -532v411q0 29 -6 47.5t-19.5 29t-35 14t-52.5 3.5v27h245v-27q-27 0 -45 -3.5t-29 -13.5t-15.5 -28.5t-4.5 -48.5v-621h-40
l-602 674h-3v-539z" />
    <glyph glyph-name="O" unicode="O" horiz-adv-x="833" 
d="M643 364q0 60 -11 122t-37 113t-69.5 83.5t-108.5 32.5q-66 0 -109.5 -32.5t-69.5 -83.5t-37 -113t-11 -122t11 -122t37 -113t69.5 -83.5t109.5 -32.5q65 0 108.5 32.5t69.5 83.5t37 113t11 122zM798 364q0 -79 -31.5 -148t-84 -120t-121.5 -80.5t-144 -29.5
q-76 0 -145 29.5t-121.5 80.5t-84 120t-31.5 148t31.5 148t84 120t121.5 80.5t145 29.5q75 0 144 -29.5t121.5 -80.5t84 -120t31.5 -148z" />
    <glyph glyph-name="P" unicode="P" horiz-adv-x="722" 
d="M130 606q0 32 -3 51t-13.5 28.5t-30.5 12.5t-55 3v27h326q165 0 250.5 -53t85.5 -159q0 -32 -11.5 -61t-39.5 -52t-75.5 -36.5t-119.5 -13.5h-169v-231q0 -32 3 -51t14.5 -28.5t34.5 -12.5t62 -3v-27h-361v27q35 0 55 3t30.5 12.5t13.5 28.5t3 51v484zM275 380h96
q87 0 130.5 45.5t43.5 120.5q0 43 -15 72.5t-40.5 48t-60 26.5t-73.5 8q-28 0 -44 -2t-24.5 -9.5t-10.5 -22t-2 -40.5v-247z" />
    <glyph glyph-name="Q" unicode="Q" horiz-adv-x="833" 
d="M643 364q0 60 -11 122t-37 113t-69.5 83.5t-108.5 32.5q-66 0 -109.5 -32.5t-69.5 -83.5t-37 -113t-11 -122t11 -122t37 -113t69.5 -83.5t109.5 -32.5q65 0 108.5 32.5t69.5 83.5t37 113t11 122zM760 -103q-53 -20 -104.5 -31t-96.5 -11q-44 0 -83 6.5t-71.5 23.5
t-58 45.5t-42.5 73.5q-57 18 -106 52.5t-85 81.5t-57 104.5t-21 121.5q0 79 31.5 148t84 120t121.5 80.5t145 29.5q75 0 144 -29.5t121.5 -80.5t84 -120t31.5 -148q0 -66 -22 -125t-61 -107t-91 -82.5t-112 -50.5q10 -51 39.5 -73t92.5 -22q37 0 63.5 4t46.5 10z" />
    <glyph glyph-name="R" unicode="R" horiz-adv-x="833" 
d="M273 381h71q94 2 143 39.5t49 120.5t-49 121.5t-143 38.5h-71v-320zM128 606q0 32 -2.5 51t-11.5 28.5t-26.5 12.5t-47.5 3v27h304q89 0 153.5 -15t106 -43t61 -67t19.5 -87q0 -35 -15 -61t-39 -44t-54.5 -28t-60.5 -13v-3q11 -5 20 -11t15 -16l169 -276q4 -7 10 -13.5
t16.5 -12t27.5 -8.5t43 -3v-27h-237l-143 280q-17 33 -34 53.5t-44 20.5h-85v-232q0 -32 3 -51t13 -28.5t30 -12.5t55 -3v-27h-334v27q30 0 47.5 3t26.5 12.5t11.5 28.5t2.5 51v484z" />
    <glyph glyph-name="S" unicode="S" horiz-adv-x="667" 
d="M559 484h-25q-12 39 -32.5 79.5t-50 74.5t-67.5 55.5t-84 21.5q-23 0 -46.5 -7t-42.5 -20.5t-30.5 -33.5t-11.5 -47q0 -32 18.5 -55t49.5 -41.5t70.5 -34t80.5 -32.5t80 -36.5t70 -46.5t49.5 -62.5t18.5 -84.5q0 -65 -21 -109t-57.5 -70.5t-87 -37.5t-110.5 -11
q-29 0 -59.5 5t-57.5 10q-26 6 -46.5 11t-28.5 5q-9 0 -20.5 -9.5t-20.5 -19.5h-30v256h22q18 -46 39.5 -88t49.5 -73.5t65 -50.5t87 -19q31 0 61.5 7.5t53.5 22.5t37.5 36.5t14.5 50.5q0 37 -18.5 63.5t-49 46.5t-69 35.5t-78.5 32.5q-41 16 -79.5 35.5t-69 45.5t-49 62
t-18.5 86q0 49 19 87.5t51.5 64.5t74.5 39.5t87 13.5q36 0 67 -5.5t55 -13.5q24 -7 40.5 -13t24.5 -6q15 0 29.5 10t22.5 22h22v-252z" />
    <glyph glyph-name="T" unicode="T" horiz-adv-x="778" 
d="M462 122q0 -32 3 -51t14.5 -28.5t34.5 -12.5t62 -3v-27h-373v27q39 0 62 3t34.5 12.5t14.5 28.5t3 51v533q0 23 -6 34.5t-31 11.5q-44 0 -81.5 -14t-68 -38t-56 -56t-45.5 -68l-23 6l44 213h38q7 -11 24 -13.5t31 -2.5h493q14 0 31 2.5t24 13.5h38l44 -213l-23 -6
q-20 36 -45.5 68t-56 56t-68 38t-81.5 14q-25 0 -31 -11.5t-6 -34.5v-533z" />
    <glyph glyph-name="U" unicode="U" horiz-adv-x="944" 
d="M274 255q0 -72 18.5 -119t49.5 -74.5t71.5 -38t84.5 -10.5q49 0 99 11t90 35.5t65 65t25 99.5v383q0 29 -6 47.5t-19.5 29t-35 14t-52.5 3.5v27h245v-27q-27 0 -45 -3.5t-29 -13.5t-15.5 -28.5t-4.5 -48.5v-379q0 -75 -32 -122t-82.5 -74t-112 -36.5t-121.5 -9.5
q-71 0 -133 13t-107.5 44t-71.5 83t-26 129v351q0 51 -18.5 73t-66.5 22v27h332v-27q-35 0 -55 -3t-30.5 -12.5t-13.5 -28.5t-3 -51v-351z" />
    <glyph glyph-name="V" unicode="V" horiz-adv-x="889" 
d="M460 -14h-19l-299 617q-14 28 -25 47t-24 30t-30.5 16t-43.5 5v27h350v-27q-52 0 -73 -5.5t-21 -19.5q0 -5 2.5 -12t6.5 -15l226 -474l182 397q14 31 22 52.5t8 28.5q0 15 -6.5 24.5t-17 14.5t-23 6.5t-24.5 2.5v27h218v-27q-47 -6 -72.5 -27.5t-44.5 -63.5z" />
    <glyph glyph-name="W" unicode="W" horiz-adv-x="1000" 
d="M286 728v-27q-42 0 -58.5 -7.5t-16.5 -16.5q0 -8 6.5 -26.5t14.5 -37.5l155 -412h2l98 269l-68 173q-7 18 -12.5 28t-13.5 15.5t-20.5 8.5t-33.5 6v27h308v-27q-28 -1 -44 -4t-24.5 -8t-10.5 -11t-2 -12q0 -8 2.5 -15.5t9.5 -25.5l156 -422h2l142 422q4 11 5 21t1 18
q0 18 -20.5 27.5t-55.5 9.5v27h184v-27q-32 -7 -46.5 -24.5t-25.5 -46.5l-221 -644h-27l-166 432l-157 -432h-26l-254 649q-5 13 -9 25t-10 21t-16 14.5t-26 5.5v27h278z" />
    <glyph glyph-name="X" unicode="X" horiz-adv-x="889" 
d="M5 0v27q31 1 56 7t46.5 17t41 27t39.5 38l197 217l-220 301q-15 20 -26.5 33t-27 20.5t-38 10.5t-58.5 3v27h384v-27q-32 -1 -54.5 -5t-22.5 -21q0 -8 6 -16.5t13 -18.5l145 -198l166 190q13 14 18.5 25.5t4.5 16.5q-1 11 -10.5 18t-43.5 9v27h229v-27q-51 -2 -86 -17
t-69 -53l-192 -213l239 -331q27 -38 60.5 -49t81.5 -11v-27h-387v27q29 0 46 2.5t25.5 6.5t10.5 8t2 6q0 7 -2.5 14t-10.5 18l-165 227l-203 -231q-6 -7 -8 -12t-2 -10q0 -9 6.5 -14.5t16.5 -8.5t21.5 -4.5t20.5 -1.5v-27h-250z" />
    <glyph glyph-name="Y" unicode="Y" horiz-adv-x="889" 
d="M512 399l176 233q5 7 11.5 17t6.5 19q0 13 -15 23t-59 10v27h233v-27q-34 0 -57 -7t-41 -20.5t-33.5 -32.5t-33.5 -43l-176 -234v-242q0 -32 3 -51t14.5 -28.5t34.5 -12.5t62 -3v-27h-373v27q39 0 62 3t34.5 12.5t14.5 28.5t3 51v205l-239 331q-10 13 -17.5 21.5
t-18.5 13t-29.5 6.5t-49.5 2v27h377v-27q-48 -1 -66 -7.5t-19 -20.5q0 -5 5.5 -13.5t8.5 -13.5z" />
    <glyph glyph-name="Z" unicode="Z" horiz-adv-x="722" 
d="M221 27h155q74 0 123 21.5t82.5 52t56 64t43.5 57.5h16l-61 -222h-594v27l442 674h-177q-43 0 -80.5 -17.5t-69 -43.5t-57 -56.5t-44.5 -55.5l-22 1l58 199h580v-27z" />
    <glyph glyph-name="bracketleft" unicode="[" horiz-adv-x="333" 
d="M39 728h226v-37h-126v-752h129v-37h-229v826z" />
    <glyph glyph-name="backslash" unicode="\" horiz-adv-x="278" 
d="M217 -14l-233 756h75l235 -756h-77z" />
    <glyph glyph-name="bracketright" unicode="]" horiz-adv-x="333" 
d="M294 -98h-229v37h129v752h-126v37h226v-826z" />
    <glyph glyph-name="asciicircum" unicode="^" horiz-adv-x="600" 
d="M84 363l180 365h72l180 -365h-83l-133 277l-134 -277h-82z" />
    <glyph glyph-name="underscore" unicode="_" horiz-adv-x="500" 
d="M0 -125v50h500v-50h-500z" />
    <glyph glyph-name="grave" unicode="`" horiz-adv-x="278" 
d="M166 505l-165 101q-21 15 -21 39q0 16 13 27.5t30 11.5t29 -8t23 -19l141 -152h-50z" />
    <glyph glyph-name="a" unicode="a" 
d="M354 256q-53 -15 -87.5 -31.5t-54.5 -34.5t-28 -36.5t-8 -37.5q0 -38 24.5 -57t59.5 -19q26 0 50.5 15.5t43.5 32.5v168zM556 67q-10 -36 -37 -58.5t-65 -22.5q-40 0 -66 15t-35 55q-36 -32 -75.5 -51t-88.5 -19q-21 0 -43 5t-39.5 16t-29 28.5t-11.5 41.5
q0 35 21.5 63.5t59.5 53.5t91 46t116 41v57q0 22 -8.5 38.5t-22.5 27t-31 16t-35 5.5q-41 0 -66.5 -22.5t-25.5 -66.5q0 -7 1 -11q1 -5 1.5 -9t0.5 -9q0 -58 -62 -58q-27 0 -40 17t-11 42q-1 20 18 46t53.5 49t83 39t105.5 16q72 0 111.5 -25.5t39.5 -73.5v-286
q0 -20 5.5 -26.5t15.5 -6.5q14 0 29 8.5t21 26.5z" />
    <glyph glyph-name="b" unicode="b" 
d="M189 141q0 -26 7.5 -50t22.5 -42t37 -28.5t51 -10.5q31 0 52 13.5t33 36t17 51.5t5 60q0 46 -10.5 85.5t-31 68.5t-50.5 45.5t-68 16.5q-18 0 -34.5 -8t-30.5 -19v-219zM189 392q21 16 38.5 28.5t35.5 21t38.5 12.5t47.5 4q47 0 80.5 -23t55 -59t31.5 -78.5t10 -81.5
q0 -48 -15 -90t-43.5 -73t-68.5 -49t-91 -18t-82 10.5t-50 19.5q-11 5 -19.5 8t-19.5 3q-8 0 -16 -9.5t-20 -31.5h-24v641q0 13 -4.5 21t-12 13t-17 7.5t-20.5 4.5v24q42 5 83 16.5t83 23.5v-345z" />
    <glyph glyph-name="c" unicode="c" horiz-adv-x="500" 
d="M458 183q0 -47 -16.5 -84t-45 -62t-68 -38t-85.5 -13q-50 0 -89.5 16t-67 45.5t-42.5 70t-15 89.5q0 52 16.5 97.5t47 79.5t73.5 54t96 20q36 0 70 -11.5t61 -30t43 -41.5t16 -45q0 -21 -14.5 -41.5t-45.5 -20.5q-23 0 -39.5 12t-29.5 44l-22 53q-10 23 -24.5 39.5
t-40.5 16.5q-24 0 -41.5 -15t-29.5 -37.5t-18 -49.5t-6 -52q0 -39 8 -78t27.5 -70t50.5 -50.5t78 -19.5q26 0 47.5 10t38 27t27.5 39t16 46h24z" />
    <glyph glyph-name="d" unicode="d" 
d="M363 325q-12 45 -38 77t-72 32q-34 0 -55.5 -17.5t-34 -44t-17 -57.5t-4.5 -58q0 -32 8 -67t25 -64.5t44 -49t66 -19.5q22 0 41.5 5.5t36.5 20.5v242zM367 52q-38 -38 -76 -52t-91 -14q-44 0 -76 20.5t-53 53.5t-31 75t-10 86q0 47 13.5 90t40 75.5t64.5 52t88 19.5
q34 0 67.5 -13.5t59.5 -32.5v215q0 26 -17.5 33.5t-49.5 12.5v24q52 5 94.5 16.5t84.5 23.5v-657q0 -33 13 -41.5t41 -8.5v-24l-162 -20v66z" />
    <glyph glyph-name="e" unicode="e" horiz-adv-x="500" 
d="M470 145q-30 -74 -82.5 -116.5t-136.5 -42.5q-54 0 -95 16t-69 46t-42.5 72t-14.5 94q0 51 17.5 95.5t48.5 77.5t74.5 52t94.5 19q40 0 77 -14.5t65 -40t44.5 -61t16.5 -77.5h-326q-2 -36 8 -70t30.5 -60.5t51 -42.5t69.5 -16q52 0 88 21.5t67 62.5zM331 300q14 0 19.5 4
t5.5 20q0 23 -8 43t-21.5 35t-32 23.5t-38.5 8.5q-32 0 -52.5 -12.5t-33.5 -32t-19 -43t-7 -46.5h187z" />
    <glyph glyph-name="f" unicode="f" horiz-adv-x="333" 
d="M204 444h99v-35h-99v-348q0 -12 2.5 -19t11.5 -11t28 -5.5t52 -1.5v-24h-285v24q27 0 43 1.5t24 5.5t10 11t2 19v348h-80v35h80q0 52 10 104.5t34.5 94.5t66.5 68t106 26q20 0 39 -5t34 -15t24.5 -24t9.5 -33q0 -21 -15.5 -32t-36.5 -11q-23 0 -35 13t-21 28
q-9 16 -18 29t-26 13t-28.5 -11t-18.5 -27t-10 -33.5t-3 -30.5v-154z" />
    <glyph glyph-name="g" unicode="g" horiz-adv-x="500" 
d="M147 -30q-23 -12 -36.5 -29t-15.5 -42q-3 -32 33.5 -52.5t105.5 -20.5q74 0 111 20t37 55q0 26 -15 39t-39 15zM324 306q0 59 -19.5 91t-55.5 32q-37 0 -56.5 -32t-19.5 -91t19.5 -91t56.5 -32q36 0 55.5 32t19.5 91zM479 -57q0 -47 -27 -75t-66.5 -42.5t-84 -19
t-78.5 -4.5q-23 0 -57.5 2.5t-66.5 12t-55.5 28t-23.5 50.5q0 15 9 28t22.5 24.5t29 19.5t27.5 13v1q-14 3 -29.5 7.5t-28.5 12t-21.5 19t-8.5 29.5q2 35 39.5 63.5t108.5 54.5q-58 25 -83.5 58.5t-25.5 68.5q0 43 16 74.5t42.5 51t60.5 29t71 9.5q16 0 29 -3.5t21 -6.5
q0 20 8 42t22 41t33 31t41 12q55 0 55 -49q-3 -43 -50 -43q-14 0 -26 3q-5 1 -11.5 1.5t-14.5 0.5q-19 0 -26 -14t-9 -30q24 -5 45 -17.5t37 -30.5q17 -18 26 -40.5t9 -47.5q0 -38 -14 -64.5t-38.5 -45t-57.5 -29t-72 -16.5q-26 -4 -48.5 -8t-39.5 -9.5t-27 -13.5t-10 -19
q0 -14 17.5 -20t47.5 -9l72 -4q46 -3 85 -10t67 -21t43.5 -37t15.5 -58z" />
    <glyph glyph-name="h" unicode="h" horiz-adv-x="611" 
d="M196 376q34 32 77.5 57t92.5 25q78 0 119.5 -42t41.5 -120v-235q0 -23 9 -30t45 -7v-24h-230v24q22 0 34.5 1.5t19 5.5t8.5 11t2 19v250q0 19 -7 36t-19.5 29.5t-29.5 20t-37 7.5q-32 0 -61.5 -12.5t-64.5 -44.5v-286q0 -12 2 -19t8 -11t17.5 -5.5t31.5 -1.5v-24h-235v24
q22 0 34.5 1.5t19 5.5t8.5 11t2 19v553q0 19 -7 29t-17.5 14.5t-21.5 6t-18 3.5v24q45 5 88.5 19t87.5 27v-361z" />
    <glyph glyph-name="i" unicode="i" horiz-adv-x="278" 
d="M24 407q45 8 88 21.5t87 29.5v-397q0 -12 1.5 -19t7.5 -11t17 -5.5t30 -1.5v-24h-228v24q20 0 32 1.5t18 5.5t8 11t2 19v295q0 9 -12 17t-51 10v24zM141 597q-26 0 -47.5 20t-21.5 50t21.5 50t47.5 20t47.5 -20t21.5 -50t-21.5 -50t-47.5 -20z" />
    <glyph glyph-name="j" unicode="j" horiz-adv-x="333" 
d="M245 8q0 -42 -14.5 -79t-40.5 -65.5t-62 -45t-79 -16.5q-16 0 -34.5 4.5t-34 14t-26 24.5t-10.5 35t16.5 33.5t36.5 13.5q17 0 31 -13t26 -30q11 -16 21.5 -29.5t19.5 -13.5q21 0 29.5 17.5t8.5 35.5v462q0 4 -3 8.5t-11 8.5t-24 6.5t-41 3.5v24q57 8 102 21.5t89 29.5
v-450zM187 597q-26 0 -47.5 20t-21.5 50t21.5 50t47.5 20t47.5 -20t21.5 -50t-21.5 -50t-47.5 -20z" />
    <glyph glyph-name="k" unicode="k" horiz-adv-x="611" 
d="M198 226l189 155q9 7 12 11.5t3 9.5q0 8 -10.5 13t-26.5 8v21h190v-24q-29 -3 -48.5 -7t-35.5 -11.5t-31.5 -19t-36.5 -27.5l-77 -60l214 -256q8 -9 18 -12.5t32 -2.5v-24h-248v22q17 2 33.5 5t16.5 10q0 3 -2 5.5t-5 6.5l-141 178l-46 -36v-130q0 -12 1.5 -19t7.5 -11
t17 -5.5t30 -1.5v-24h-217v24q32 0 40.5 7t8.5 30v590q0 15 -16 22t-29 9v24q39 3 78.5 13t78.5 18v-511z" />
    <glyph glyph-name="l" unicode="l" horiz-adv-x="278" 
d="M199 61q0 -12 2 -19t9 -11t20.5 -5.5t36.5 -1.5v-24h-248v24q23 0 36.5 1.5t20.5 5.5t9 11t2 19v566q0 13 -4.5 21t-12 13t-17 7.5t-20.5 4.5v24q42 5 83 16.5t83 23.5v-676z" />
    <glyph glyph-name="m" unicode="m" horiz-adv-x="889" 
d="M28 405q43 10 84 23.5t83 29.5v-80q35 33 72 56.5t89 23.5q42 0 78 -22t62 -54q16 14 35 27.5t40 24.5t43 17.5t45 6.5q24 0 50 -8.5t47.5 -24.5t36 -39.5t14.5 -53.5v-271q0 -12 2 -19t8.5 -11t19 -5.5t34.5 -1.5v-24h-234v24q39 0 48.5 7t9.5 30v271q0 18 -9 31.5
t-22.5 22.5t-29.5 13.5t-29 4.5q-29 0 -53.5 -15.5t-50.5 -41.5v-286q0 -12 2 -19t8.5 -11t19.5 -5.5t36 -1.5v-24h-236v24q39 0 48.5 7t9.5 30v271q0 18 -9 31.5t-22.5 22.5t-29.5 13.5t-29 4.5q-29 0 -53.5 -15.5t-50.5 -41.5v-286q0 -12 2 -19t8.5 -11t19.5 -5.5t36 -1.5
v-24h-237v24q20 0 31.5 1.5t17.5 5.5t8 11t2 19v276q0 23 -17.5 31t-37.5 13v24z" />
    <glyph glyph-name="n" unicode="n" horiz-adv-x="611" 
d="M84 337q0 23 -17.5 31t-37.5 13v24q43 10 84 23.5t83 29.5v-82q34 32 77.5 57t92.5 25q78 0 119.5 -42t41.5 -120v-235q0 -23 9.5 -30t47.5 -7v-24h-230v24q21 0 33 1.5t18 5.5t8 11t2 19v250q0 19 -7 36t-19.5 29.5t-29.5 20t-37 7.5q-32 0 -61.5 -12.5t-64.5 -44.5
v-286q0 -12 2 -19t8.5 -11t19.5 -5.5t36 -1.5v-24h-237v24q20 0 31.5 1.5t17.5 5.5t8 11t2 19v276z" />
    <glyph glyph-name="o" unicode="o" 
d="M398 222q0 109 -28.5 160.5t-91.5 51.5t-91.5 -51.5t-28.5 -160.5t28.5 -160.5t91.5 -51.5t91.5 51.5t28.5 160.5zM526 222q0 -52 -19.5 -95.5t-53.5 -74.5t-79 -48.5t-96 -17.5t-96 17.5t-79 48.5t-53.5 74.5t-19.5 95.5t19.5 95.5t53.5 74.5t79 48.5t96 17.5t96 -17.5
t79 -48.5t53.5 -74.5t19.5 -95.5z" />
    <glyph glyph-name="p" unicode="p" 
d="M194 106q-1 -13 6.5 -29.5t22 -31.5t36 -25t48.5 -10q31 0 52 13.5t33 36t17 51.5t5 60q0 46 -10.5 85.5t-31 68.5t-50.5 45.5t-68 16.5q-22 -1 -35 -9t-25 -21v-251zM195 458v-66q18 16 34.5 28.5t34 21t38 12.5t47.5 4q47 0 80.5 -23t55 -59t31.5 -78.5t10 -81.5
q0 -48 -15 -90t-43.5 -73t-68.5 -49t-91 -18q-27 0 -59 7t-55 27v-141q0 -13 2 -21t8.5 -12.5t18.5 -6.5t32 -2v-24h-227v24q17 0 27.5 2t16.5 6.5t8 12.5t2 21v466q0 22 -18 27.5t-36 7.5v24z" />
    <glyph glyph-name="q" unicode="q" 
d="M482 -126q0 -24 8.5 -30.5t42.5 -6.5v-24h-230v24q23 0 36.5 2t20 6.5t8.5 13t2 20.5v165q-32 -30 -69 -44t-77 -14q-48 0 -84.5 16.5t-60.5 46t-36.5 70.5t-12.5 90q0 52 17 97t48.5 79t74.5 53.5t96 19.5q40 0 78 -16t71 -37l67 53v-584zM370 311q0 20 -8.5 40.5
t-22.5 37.5t-33 28t-40 11q-51 0 -83 -44t-32 -131q0 -99 32.5 -147.5t82.5 -48.5q35 0 59.5 6t44.5 27v221z" />
    <glyph glyph-name="r" unicode="r" horiz-adv-x="444" 
d="M203 61q0 -12 2 -19t9.5 -11t22 -5.5t40.5 -1.5v-24h-259v24q25 0 39.5 1.5t22 5.5t9.5 11t2 19v276q0 23 -19.5 31t-51.5 13v24q55 10 98 23.5t85 29.5v-130h2q14 21 30.5 43.5t36 42t42.5 32t51 12.5q30 0 54.5 -19.5t24.5 -51.5q0 -27 -15 -44.5t-44 -17.5
q-18 0 -31 5.5t-24 11.5q-11 7 -22 12t-27 5q-13 0 -27 -11t-25 -26t-18.5 -31.5t-7.5 -26.5v-203z" />
    <glyph glyph-name="s" unicode="s" horiz-adv-x="444" 
d="M390 289l-24 -2q-9 26 -22.5 52t-31.5 47t-41.5 34.5t-54.5 13.5q-26 0 -47.5 -18.5t-21.5 -47.5q0 -13 10 -24.5t28 -23t42 -24t53 -26.5q23 -12 46 -24.5t41.5 -29t30 -38t11.5 -50.5q0 -42 -16 -69t-42 -43.5t-60 -23t-70 -6.5q-16 0 -36.5 3t-42 8t-41.5 11t-35 13
l-9 151l24 4q7 -32 19.5 -62t32.5 -53t47.5 -37t63.5 -14q32 0 49 21t17 51q0 18 -11 32t-29 26t-41 23t-47 23q-24 11 -47 24t-41 29.5t-29 37.5t-11 48q0 34 17 59.5t43 41.5t57.5 24t60.5 8q38 0 77 -10.5t81 -26.5v-132z" />
    <glyph glyph-name="t" unicode="t" horiz-adv-x="333" 
d="M320 409h-127v-310q0 -9 1.5 -19.5t7.5 -19t18 -14.5t32 -6q25 0 46 15t38 31v-36q-9 -13 -25.5 -24.5t-36 -20.5t-39.5 -14t-36 -5q-54 0 -86 26t-32 67v330h-55v24l167 180v-169h146z" />
    <glyph glyph-name="u" unicode="u" horiz-adv-x="611" 
d="M526 107q0 -23 17.5 -31t37.5 -13v-24q-43 -10 -84 -23.5t-83 -29.5v82q-34 -32 -77.5 -57t-92.5 -25q-78 0 -119.5 42t-41.5 120v235q0 23 -9.5 30t-47.5 7v24h169v-311q0 -19 7 -36t19.5 -29.5t29.5 -20t37 -7.5q32 0 61.5 12.5t64.5 44.5v286q0 12 -2 19t-8.5 11
t-20 5.5t-35.5 1.5v24h178v-337z" />
    <glyph glyph-name="v" unicode="v" 
d="M13 444h255v-24q-26 0 -44.5 -7.5t-18.5 -16.5q0 -13 17 -49l107 -231l101 226q12 30 12 43q0 10 -6 16.5t-14 10t-17.5 5.5t-16.5 3v24h155v-24q-33 -5 -48 -25t-28 -48l-166 -361h-31l-197 407q-8 15 -25 21t-35 6v24z" />
    <glyph glyph-name="w" unicode="w" horiz-adv-x="833" 
d="M261 420q-32 0 -50 -7.5t-18 -17.5q0 -8 5 -18t10 -24l94 -220l78 195q7 17 12 29.5t5 21.5q0 13 -16 25t-60 16v24h262v-24q-29 -2 -46 -7.5t-17 -15.5q0 -4 5.5 -16.5t8.5 -20.5l93 -231l80 220q6 15 10 26t4 17q0 14 -17 19t-40 9v24h151v-24q-35 -6 -51.5 -32
t-28.5 -57l-138 -345h-30l-149 360l-146 -360h-27l-177 406q-8 17 -21.5 22t-27.5 6v24h242v-24z" />
    <glyph glyph-name="x" unicode="x" 
d="M12 0v24q29 1 48.5 12t37.5 29l128 128l-141 189q-28 38 -80 38v24h264v-24q-32 0 -43 -5t-11 -17q0 -5 4 -12t7 -11l73 -97l91 104q5 6 5 15q0 8 -9.5 15.5t-35.5 7.5v24h188v-24q-37 0 -69.5 -15.5t-57.5 -42.5l-95 -105l149 -202q6 -8 17 -14t23.5 -10t25 -5.5
t21.5 -1.5v-24h-290v24q9 1 19 2t19 4t14.5 8t5.5 13q0 11 -9 23l-70 95l-87 -96q-17 -18 -17 -29q0 -13 14 -16t30 -4v-24h-169z" />
    <glyph glyph-name="y" unicode="y" 
d="M12 444h253v-24q-9 0 -21.5 -1.5t-23 -4.5t-18 -8t-7.5 -12q0 -5 2.5 -12t4.5 -12l126 -257l109 244q4 8 5 13.5t1 12.5q0 17 -12 26t-48 11v24h157v-24q-31 -5 -46.5 -20.5t-26.5 -42.5l-203 -458q-7 -16 -15 -33t-18.5 -31.5t-25 -23.5t-35.5 -9q-26 0 -46 14.5
t-20 43.5q0 25 17.5 38.5t35.5 13.5q11 0 19.5 -2.5t16.5 -4.5q19 -7 27 -7q9 0 18 11t16 25t11 28.5t4 21.5l-185 387q-6 14 -13 22.5t-15.5 13.5t-19 7.5t-24.5 5.5v24z" />
    <glyph glyph-name="z" unicode="z" 
d="M535 188l-44 -188h-464v23l320 397h-88q-46 -2 -77 -9t-55 -23t-44 -41t-45 -62l-18 8l49 151h439v-8l-333 -412h123q40 0 70.5 12t56 33.5t47 53t44.5 70.5z" />
    <glyph glyph-name="braceleft" unicode="{" horiz-adv-x="333" 
d="M122 202q0 24 -3 42t-10.5 31.5t-21 23t-34.5 16.5q43 13 56 39t13 74v175q0 45 9.5 72t29 42t49 20t70.5 5v-20q-32 -5 -45 -33t-13 -80v-167q0 -26 -3 -46.5t-11.5 -36.5t-25 -26.5t-43.5 -17.5v-2q27 -6 43.5 -16.5t25 -26t11.5 -36t3 -46.5v-167q0 -52 13 -80t45 -33
v-20q-41 0 -70.5 5t-49 20t-29 42t-9.5 72v175z" />
    <glyph glyph-name="bar" unicode="|" horiz-adv-x="222" 
d="M147 750v-1000h-72v1000h72z" />
    <glyph glyph-name="braceright" unicode="}" horiz-adv-x="333" 
d="M211 429q0 -49 13.5 -74.5t55.5 -39.5q-42 -14 -55.5 -39.5t-13.5 -74.5v-175q0 -44 -9.5 -71t-29 -42t-49.5 -20t-70 -5v20q32 5 45 33t13 79v168q0 26 2.5 46.5t11.5 36t25 26.5t43 18v2q-27 6 -43 16.5t-25 26t-11.5 36t-2.5 46.5v168q0 51 -13 79t-45 33v20
q40 0 70 -5t49.5 -20t29 -42t9.5 -71v-175z" />
    <glyph glyph-name="asciitilde" unicode="~" horiz-adv-x="600" 
d="M531 236q-12 -17 -24.5 -32.5t-27.5 -27.5t-32.5 -19t-40.5 -7q-28 0 -52.5 9.5t-49.5 23.5q-24 14 -52 24.5t-63 10.5q-17 0 -29.5 -6.5t-23 -16.5t-18 -23t-13.5 -26l-36 62q8 16 19.5 31.5t26.5 27.5t34.5 19.5t44.5 7.5q26 0 54 -9.5t57 -22.5q28 -12 55 -24t47 -12
q15 0 27.5 6.5t23 16.5t19.5 23l18 26z" />
    <glyph glyph-name="uni00A0" unicode="&#xa0;" horiz-adv-x="278" 
 />
    <glyph glyph-name="exclamdown" unicode="&#xa1;" horiz-adv-x="333" 
d="M186 345q5 -91 19.5 -181t34.5 -179q7 -32 7 -66q0 -20 -3.5 -40.5t-12.5 -37.5t-24.5 -28t-39.5 -11t-39.5 11t-24.5 28t-12.5 37.5t-3.5 40.5q0 34 7 66q20 89 34.5 179t19.5 181h38zM90 481q0 32 22.5 54.5t54.5 22.5t54.5 -22.5t22.5 -54.5t-22.5 -54.5t-54.5 -22.5
t-54.5 22.5t-22.5 54.5z" />
    <glyph glyph-name="cent" unicode="&#xa2;" 
d="M334 397q-9 21 -23 35.5t-39 14.5q-24 0 -41.5 -15t-29.5 -37.5t-18 -49.5t-6 -52q0 -48 13 -96t45 -80zM494 197q0 -47 -16.5 -84t-45 -62t-68 -38t-85.5 -13q-23 0 -43 4l-54 -156h-42l59 166q-63 21 -98.5 75.5t-35.5 131.5q0 52 16.5 97.5t47 79.5t73.5 54t96 20
q30 0 59 -9l43 121h38l-46 -133q42 -19 69 -48.5t27 -58.5q0 -21 -14.5 -41.5t-45.5 -20.5q-23 0 -39.5 12t-29.5 44l-4 9l-88 -254q30 -18 74 -18q26 0 47.5 10t38 27t27.5 39t16 46h24z" />
    <glyph glyph-name="sterling" unicode="&#xa3;" 
d="M49 70q0 -29 17 -46t47 -17q32 0 62.5 19t49.5 43q-25 25 -51 43.5t-64 18.5q-27 0 -44 -17.5t-15 -43.5h-2zM541 188q-3 -35 -14 -71t-31.5 -65t-50.5 -47.5t-70 -18.5t-74.5 18.5t-58.5 47.5q-26 -31 -61.5 -48.5t-77.5 -17.5q-37 0 -65 18t-28 58q0 54 31.5 78
t81.5 24q35 0 68.5 -11.5t65.5 -25.5q4 17 7.5 34t3.5 35q0 38 -15.5 72t-38.5 65h-179v39h149q-30 33 -56 77.5t-26 99.5q0 46 20.5 82t52.5 61t72.5 37.5t80.5 12.5q33 0 64.5 -11t56.5 -31.5t40.5 -50t15.5 -65.5q0 -15 -5 -31t-15 -29t-23.5 -21.5t-30.5 -8.5
q-30 0 -52.5 18.5t-22.5 50.5q0 31 16.5 48t44.5 17q5 0 10.5 -1t10.5 -2q10 -3 22 -3q10 0 10 7q0 16 -13.5 30t-32 24t-38 15.5t-32.5 5.5q-61 0 -96.5 -27t-35.5 -93q0 -20 8.5 -48t22.5 -58q14 -29 26 -57.5t20 -48.5h166v-39h-151q5 -21 7.5 -38t2.5 -39
q0 -15 -3.5 -34t-9.5 -38.5t-13.5 -38t-15.5 -32.5q49 -25 107 -25q48 0 82 27t46 73h24z" />
    <glyph glyph-name="currency" unicode="&#xa4;" 
d="M79 203q-51 61 -49 146q-1 42 11 81t40 67l-57 58l49 49l56 -56q29 24 69 37t82 13q40 0 78 -13t65 -36l57 56l51 -51l-55 -55q25 -28 37 -67t12 -81t-12 -80.5t-37 -69.5l54 -56l-47 -47l-56 58q-29 -27 -67.5 -40.5t-80.5 -13.5q-44 0 -83 13t-69 40l-55 -58l-48 48z
M279 179q35 0 65 14t52.5 37.5t35 54.5t12.5 66q0 34 -12.5 65t-35 54t-52.5 37t-64 14q-36 0 -66.5 -13.5t-53.5 -37t-36 -54.5t-13 -67q0 -35 13 -66t36 -54t53.5 -36.5t65.5 -13.5z" />
    <glyph glyph-name="yen" unicode="&#xa5;" 
d="M331 399l138 233q4 7 9 17t5 19q0 13 -11.5 23t-46.5 10v27h183v-27q-27 0 -45 -7t-32.5 -20.5t-26.5 -32.5t-26 -43l-88 -160h108v-46h-133l-16 -28v-56h149v-46h-149v-140q0 -32 2 -51t10.5 -28.5t24.5 -12.5t44 -3v-27h-293v27q29 0 45.5 3t25 12.5t11 28.5t2.5 51
v140h-159v46h159v19l-37 65h-122v46h97l-121 220q-8 13 -13.5 21.5t-14.5 13t-23.5 6.5t-38.5 2v27h296v-27q-37 -1 -51.5 -7.5t-15.5 -20.5q0 -5 4.5 -13.5t6.5 -13.5z" />
    <glyph glyph-name="brokenbar" unicode="&#xa6;" horiz-adv-x="222" 
d="M147 675v-350h-72v350h72zM147 175v-350h-72v350h72z" />
    <glyph glyph-name="section" unicode="&#xa7;" horiz-adv-x="500" 
d="M186 446q-27 0 -43.5 -18.5t-16.5 -44.5q0 -19 11 -37t27 -34t33.5 -30t30.5 -25q17 -14 38.5 -28t44.5 -14q24 0 43 16.5t19 41.5q0 19 -10.5 37.5t-26 35t-33 31t-30.5 26.5q-17 14 -40.5 28.5t-46.5 14.5zM243 -81q-23 0 -48.5 5.5t-47.5 17.5t-36.5 31.5t-14.5 46.5
q0 30 17 45t46 15q21 0 37 -15.5t16 -36.5q0 -14 -6 -23t-15 -14q-8 -5 -14 -10t-6 -11q0 -11 17.5 -19t57.5 -8q33 0 56 17t23 52q0 19 -11 36.5t-29 34.5t-40.5 34.5t-46.5 36.5q-23 18 -47 37.5t-43.5 42t-32.5 48.5t-13 56q0 62 31.5 96.5t94.5 31.5v9q-14 12 -29 26.5
t-27 31t-20 35t-8 38.5q0 66 41 101t104 35q20 0 44 -6t45 -18t35 -30t14 -42q0 -28 -16 -45t-45 -17q-19 0 -35.5 15t-16.5 34q0 13 4.5 21t10.5 14l15 15t9 14q0 6 -16.5 13.5t-48.5 7.5q-34 0 -55.5 -20t-21.5 -53q0 -15 11.5 -31.5t30.5 -33.5t43 -35t49 -37
q27 -20 51.5 -41.5t42.5 -45.5t28.5 -51t10.5 -57q0 -55 -33 -87.5t-88 -30.5q12 -12 26.5 -27.5t26.5 -33.5t20 -39.5t8 -45.5q0 -32 -13 -56.5t-35 -41t-49.5 -24.5t-57.5 -8z" />
    <glyph glyph-name="dieresis" unicode="&#xa8;" horiz-adv-x="278" 
d="M241 634q24 0 41.5 -17t17.5 -42t-17.5 -42t-41.5 -17q-26 0 -42.5 17t-16.5 42t16.5 42t42.5 17zM35 516q-26 0 -42.5 17t-16.5 42t16.5 42t42.5 17q24 0 41.5 -17t17.5 -42t-17.5 -42t-41.5 -17z" />
    <glyph glyph-name="copyright" unicode="&#xa9;" horiz-adv-x="800" 
d="M400 -14q-78 0 -146 29t-117.5 80t-78 120t-28.5 148t28.5 148t78 120.5t117.5 81t146 29.5t146 -29.5t117.5 -80.5t78 -120.5t28.5 -148.5t-28.5 -148t-78 -120t-117.5 -80t-146 -29zM400 38q63 0 118 26t95 70.5t63 103.5t23 125t-23 125.5t-63 104t-95 71t-118 26.5
t-118 -26.5t-95 -71.5t-63 -104t-23 -125t23 -125t63.5 -103.5t95 -70.5t117.5 -26zM582 276l-17 -78q-1 -10 -8.5 -13.5t-20.5 -7.5q-15 -5 -45.5 -12.5t-68.5 -7.5q-50 0 -92.5 13t-73.5 39.5t-48.5 67.5t-17.5 97q0 34 13 71.5t41.5 68.5t74 51t110.5 20q42 0 66 -6
t46 -13q23 -8 23 -23v-77h-20q-3 17 -10.5 34t-21.5 30.5t-34.5 22t-49.5 8.5q-35 0 -61 -13.5t-43 -37.5t-25.5 -57t-8.5 -73q0 -43 7.5 -79.5t24.5 -63t44 -41.5t65 -15q51 0 82.5 27.5t48.5 67.5h20z" />
    <glyph glyph-name="ordfeminine" unicode="&#xaa;" horiz-adv-x="334" 
d="M198 621q-69 -18 -92.5 -39.5t-23.5 -44.5t16 -34t39 -11q17 0 33 9t28 19v101zM329 507q-6 -22 -23.5 -34.5t-42.5 -12.5q-26 0 -43 8.5t-23 32.5q-23 -20 -48.5 -30.5t-57.5 -10.5q-14 0 -28 3t-25.5 9t-19 16t-7.5 25q0 21 14 38.5t38.5 32t59 27.5t75.5 25v34
q0 26 -20 38t-43 12q-26 0 -43 -12.5t-17 -38.5q0 -5 1 -7q1 -4 1 -11q0 -35 -40 -35q-17 0 -26 10.5t-7 25.5q-1 12 11.5 27.5t35 29.5t53.5 23.5t69 9.5q47 0 72.5 -15.5t25.5 -44.5v-171q0 -12 3.5 -15.5t10.5 -3.5q9 0 18.5 4.5t13.5 15.5z" />
    <glyph glyph-name="guillemotleft" unicode="&#xab;" horiz-adv-x="500" 
d="M225 352q11 10 20 15t12 5q7 0 7 -11q0 -9 -12 -27l-82 -112l82 -113q6 -8 9 -15.5t3 -10.5q0 -11 -7 -11q-3 0 -12 5t-20 15l-149 130zM385 352q11 10 20 15t12 5q7 0 7 -11q0 -9 -12 -27l-82 -112l82 -113q6 -8 9 -15.5t3 -10.5q0 -11 -7 -11q-3 0 -12 5t-20 15
l-149 130z" />
    <glyph glyph-name="logicalnot" unicode="&#xac;" horiz-adv-x="600" 
d="M449 275h-370v72h442v-252h-72v180z" />
    <glyph glyph-name="uni00AD" unicode="&#xad;" horiz-adv-x="333" 
d="M44 170v104h245v-104h-245z" />
    <glyph glyph-name="registered" unicode="&#xae;" horiz-adv-x="800" 
d="M400 -14q-78 0 -146 29t-117.5 80t-78 120t-28.5 148t28.5 148t78 120.5t117.5 81t146 29.5t146 -29.5t117.5 -80.5t78 -120.5t28.5 -148.5t-28.5 -148t-78 -120t-117.5 -80t-146 -29zM400 38q63 0 118 26t95 70.5t63 103.5t23 125t-23 125.5t-63 104t-95 71t-118 26.5
t-118 -26.5t-95 -71.5t-63 -104t-23 -125t23 -125t63.5 -103.5t95 -70.5t117.5 -26zM224 573h201q25 0 47 -6t39 -19t27 -32t10 -45q0 -40 -23.5 -70.5t-61.5 -41.5l62 -89q20 -26 40.5 -51t36.5 -39v-11h-80q-13 0 -26 14.5t-27.5 39.5t-32 56.5t-39.5 66.5h-43v-103
q0 -16 0.5 -25t5 -13.5t15 -7t29.5 -4.5v-24h-180v24q19 2 29.5 4.5t15 7t5 13.5t0.5 25v255q0 16 -0.5 25t-5 14t-15 7.5t-29.5 4.5v24zM354 370h41q38 0 53.5 28t15.5 68q0 47 -20 65t-49 18h-41v-179z" />
    <glyph glyph-name="macron" unicode="&#xaf;" horiz-adv-x="278" 
d="M-23 544v65h323v-65h-323z" />
    <glyph glyph-name="degree" unicode="&#xb0;" horiz-adv-x="400" 
d="M108 599q0 -42 25 -69.5t67 -27.5t67 27.5t25 69.5t-25 69.5t-67 27.5t-67 -27.5t-25 -69.5zM200 456q-30 0 -56 11t-45.5 30.5t-30.5 45.5t-11 56t11 56t30.5 45.5t45.5 30.5t56 11t56 -11t45.5 -30.5t30.5 -45.5t11 -56t-11 -56t-30.5 -45.5t-45.5 -30.5t-56 -11z" />
    <glyph glyph-name="plusminus" unicode="&#xb1;" horiz-adv-x="600" 
d="M264 444h72v-134h185v-72h-185v-135h-72v135h-185v72h185v134zM79 72h442v-72h-442v72z" />
    <glyph glyph-name="uni00B2" unicode="&#xb2;" horiz-adv-x="333" 
d="M14 297q-1 31 9 56.5t27.5 47.5t39.5 41.5t44 38.5q14 12 30.5 26.5t31 31t24.5 34.5t10 38q0 30 -22.5 52.5t-60.5 22.5t-72 -26.5t-57 -61.5l-13 4q10 29 25.5 54.5t36.5 44.5t48.5 30t62.5 11q60 0 98 -33.5t38 -89.5q0 -35 -15.5 -60.5t-39.5 -45.5t-54 -36t-58 -31
q-12 -6 -26 -14t-27.5 -18.5t-24 -23t-13.5 -26.5h181q16 0 27 2t18.5 6.5t12.5 12t10 18.5l15 -6l-34 -100h-272z" />
    <glyph glyph-name="uni00B3" unicode="&#xb3;" horiz-adv-x="333" 
d="M99 547q18 0 38 4.5t37 13.5t28.5 23t11.5 34q0 30 -22.5 47t-54.5 17q-25 0 -46 -14.5t-32 -34.5l-14 4q14 47 46 74t86 27q45 0 77.5 -24.5t32.5 -68.5q0 -18 -8.5 -32.5t-21.5 -25.5t-29.5 -19t-32.5 -13v-2q24 -5 46 -17.5t39.5 -30t27.5 -39t10 -44.5
q0 -69 -40.5 -103t-107.5 -34q-18 0 -44.5 2t-51.5 10t-42.5 23.5t-17.5 41.5q0 14 11.5 25.5t28.5 11.5q26 0 35.5 -15.5t17.5 -33.5q4 -9 9 -18t12 -16t17.5 -11t26.5 -4q18 0 32 9t23 22.5t13.5 29.5t4.5 31q0 26 -13 48t-34 39t-47 29t-52 19v15z" />
    <glyph glyph-name="acute" unicode="&#xb4;" horiz-adv-x="278" 
d="M62 505l141 152q11 11 23 19t29 8t30 -11.5t13 -27.5q0 -24 -21 -39l-165 -101h-50z" />
    <glyph glyph-name="mu" unicode="&#xb5;" horiz-adv-x="611" 
d="M526 107q0 -23 17.5 -31t37.5 -13v-24q-43 -10 -84 -23.5t-83 -29.5v82q-34 -32 -77.5 -57t-92.5 -25q-28 0 -49 6v-179h-170v24h20.5t19 2t13.5 7t5 14v523q0 23 -9.5 30t-47.5 7v24h169v-311q0 -19 7 -36t19.5 -29.5t29.5 -20t37 -7.5q32 0 61.5 12.5t64.5 44.5v286
q0 12 -2 19t-8.5 11t-20 5.5t-35.5 1.5v24h178v-337z" />
    <glyph glyph-name="paragraph" unicode="&#xb6;" horiz-adv-x="600" 
d="M528 704q-28 -4 -50.5 -8t-27.5 -20v-759h-82v781h-59v-781h-82v400q-45 0 -79 15.5t-56.5 43.5t-34 67.5t-11.5 86.5q0 52 11.5 89.5t36.5 61.5t65 35.5t96 11.5h273v-24z" />
    <glyph glyph-name="periodcentered" unicode="&#xb7;" horiz-adv-x="278" 
d="M216 221q0 -32 -22.5 -54.5t-54.5 -22.5t-54.5 22.5t-22.5 54.5t22.5 54.5t54.5 22.5t54.5 -22.5t22.5 -54.5z" />
    <glyph glyph-name="cedilla" unicode="&#xb8;" horiz-adv-x="278" 
d="M108 0h41l-31 -64q11 2 21.5 4t22.5 0q34 -4 54.5 -20t20.5 -54q0 -24 -12.5 -40t-31.5 -25.5t-41.5 -13t-41.5 -3.5q-23 0 -47.5 3.5t-45.5 12.5l17 35q30 -12 62 -12q26 0 43 12.5t13 28.5q-1 18 -14 27t-33 10q-8 -1 -15 -2t-14 -3l-11 8z" />
    <glyph glyph-name="uni00B9" unicode="&#xb9;" horiz-adv-x="333" 
d="M144 655q0 6 -2.5 10.5t-9.5 6.5t-20 3t-35 1v20q58 8 90 22t41 24h20v-389q0 -9 3.5 -16t12.5 -11t25 -6.5t42 -2.5v-20h-246v20q49 1 64 9t15 27v302z" />
    <glyph glyph-name="ordmasculine" unicode="&#xba;" horiz-adv-x="334" 
d="M89 601q0 -65 18 -94t60 -29t60 29t18 94t-18 94t-60 29t-60 -29t-18 -94zM6 601q0 31 12.5 57t34.5 44.5t51.5 29t62.5 10.5t62.5 -10.5t51.5 -29t34.5 -44.5t12.5 -57t-12.5 -57t-34.5 -44.5t-51.5 -29t-62.5 -10.5t-62.5 10.5t-51.5 29t-34.5 44.5t-12.5 57z" />
    <glyph glyph-name="guillemotright" unicode="&#xbb;" horiz-adv-x="500" 
d="M115 92q-11 -10 -20 -15t-12 -5q-7 0 -7 11q0 9 12 27l82 112l-82 113q-6 8 -9 15.5t-3 10.5q0 11 7 11q3 0 12 -5t20 -15l149 -130zM275 92q-11 -10 -20 -15t-12 -5q-7 0 -7 11q0 9 12 27l82 112l-82 113q-6 8 -9 15.5t-3 10.5q0 11 7 11q3 0 12 -5t20 -15l149 -130z
" />
    <glyph glyph-name="onequarter" unicode="&#xbc;" horiz-adv-x="834" 
d="M644 188v154h-1l-132 -154h133zM727 0h-83v149h-160v43l222 253h21v-257h64v-39h-64v-149zM204 -14l439 756h57l-439 -756h-57zM123 655q0 6 -2.5 10.5t-9.5 6.5t-20 3t-35 1v20q58 8 90 22t41 24h20v-389q0 -9 3.5 -16t12.5 -11t25 -6.5t42 -2.5v-20h-246v20q49 1 64 9
t15 27v302z" />
    <glyph glyph-name="onehalf" unicode="&#xbd;" horiz-adv-x="834" 
d="M162 -14l442 756h54l-442 -756h-54zM479 0q-1 31 9 56.5t27.5 47.5t39.5 41.5t44 38.5q14 12 30.5 26.5t31 31t24.5 34.5t10 38q0 30 -22.5 52.5t-60.5 22.5t-72 -26.5t-57 -61.5l-13 4q10 29 25.5 54.5t36.5 44.5t48.5 30t62.5 11q60 0 98 -33.5t38 -89.5
q0 -35 -15.5 -60.5t-39.5 -45.5t-54 -36t-58 -31q-12 -6 -26 -14t-27.5 -18.5t-24 -23t-13.5 -26.5h181q16 0 27 2t18.5 6.5t12.5 12t10 18.5l15 -6l-34 -100h-272zM123 655q0 6 -2.5 10.5t-9.5 6.5t-20 3t-35 1v20q58 8 90 22t41 24h20v-389q0 -9 3.5 -16t12.5 -11t25 -6.5
t42 -2.5v-20h-246v20q49 1 64 9t15 27v302z" />
    <glyph glyph-name="threequarters" unicode="&#xbe;" horiz-adv-x="834" 
d="M204 -14l439 756h57l-439 -756h-57zM129 547q18 0 38 4.5t37 13.5t28.5 23t11.5 34q0 30 -22.5 47t-54.5 17q-25 0 -46 -14.5t-32 -34.5l-14 4q14 47 46 74t86 27q45 0 77.5 -24.5t32.5 -68.5q0 -18 -8.5 -32.5t-21.5 -25.5t-29.5 -19t-32.5 -13v-2q24 -5 46 -17.5
t39.5 -30t27.5 -39t10 -44.5q0 -69 -40.5 -103t-107.5 -34q-18 0 -44.5 2t-51.5 10t-42.5 23.5t-17.5 41.5q0 14 11.5 25.5t28.5 11.5q26 0 35.5 -15.5t17.5 -33.5q4 -9 9 -18t12 -16t17.5 -11t26.5 -4q18 0 32 9t23 22.5t13.5 29.5t4.5 31q0 26 -13 48t-34 39t-47 29
t-52 19v15zM644 188v154h-1l-132 -154h133zM727 0h-83v149h-160v43l222 253h21v-257h64v-39h-64v-149z" />
    <glyph glyph-name="questiondown" unicode="&#xbf;" 
d="M368 345l33 -271l-14 -7q-33 29 -74 47.5t-86 18.5q-32 0 -60.5 -8t-49.5 -25t-33.5 -42.5t-12.5 -59.5t12 -60.5t32.5 -44.5t48.5 -27.5t60 -9.5q26 0 52 17t41 37q11 15 21 30t21.5 26.5t26 19t35.5 7.5q34 0 53.5 -20t19.5 -54q0 -36 -23.5 -59t-56.5 -36t-69 -17.5
t-62 -4.5q-53 0 -98.5 14.5t-79 43.5t-53 72t-19.5 99q0 103 57 156t159 51q18 0 35.5 -2t35.5 -5l15 114h33zM277 481q0 32 22.5 54.5t54.5 22.5t54.5 -22.5t22.5 -54.5t-22.5 -54.5t-54.5 -22.5t-54.5 22.5t-22.5 54.5z" />
    <glyph glyph-name="Agrave" unicode="&#xc0;" horiz-adv-x="889" 
d="M19 0v27q30 6 49.5 16t35.5 28t30 46t33 70l188 419q-4 10 -8.5 20t-12.5 13q25 21 49.5 43.5t44.5 48.5q5 7 8 9t6 2q4 0 6.5 -3.5t9.5 -17.5l301 -621q10 -22 20.5 -35.5t23 -21t29 -11t39.5 -5.5v-27h-352v27q52 0 70.5 11.5t18.5 29.5q0 17 -11 38.5t-18 35.5l-37 75
h-322l-31 -74q-10 -23 -16.5 -43.5t-6.5 -29.5q0 -20 21 -31.5t66 -11.5v-27h-234zM233 252h289l-149 311zM465 770l-165 101q-21 15 -21 39q0 16 13 27.5t30 11.5t29 -8t23 -19l141 -152h-50z" />
    <glyph glyph-name="Aacute" unicode="&#xc1;" horiz-adv-x="889" 
d="M19 0v27q30 6 49.5 16t35.5 28t30 46t33 70l188 419q-4 10 -8.5 20t-12.5 13q25 21 49.5 43.5t44.5 48.5q5 7 8 9t6 2q4 0 6.5 -3.5t9.5 -17.5l301 -621q10 -22 20.5 -35.5t23 -21t29 -11t39.5 -5.5v-27h-352v27q52 0 70.5 11.5t18.5 29.5q0 17 -11 38.5t-18 35.5l-37 75
h-322l-31 -74q-10 -23 -16.5 -43.5t-6.5 -29.5q0 -20 21 -31.5t66 -11.5v-27h-234zM233 252h289l-149 311zM361 770l141 152q11 11 23 19t29 8t30 -11.5t13 -27.5q0 -24 -21 -39l-165 -101h-50z" />
    <glyph glyph-name="Acircumflex" unicode="&#xc2;" horiz-adv-x="889" 
d="M19 0v27q30 6 49.5 16t35.5 28t30 46t33 70l188 419q-4 10 -8.5 20t-12.5 13q25 21 49.5 43.5t44.5 48.5q5 7 8 9t6 2q4 0 6.5 -3.5t9.5 -17.5l301 -621q10 -22 20.5 -35.5t23 -21t29 -11t39.5 -5.5v-27h-352v27q52 0 70.5 11.5t18.5 29.5q0 17 -11 38.5t-18 35.5l-37 75
h-322l-31 -74q-10 -23 -16.5 -43.5t-6.5 -29.5q0 -20 21 -31.5t66 -11.5v-27h-234zM233 252h289l-149 311zM476 942l124 -172h-50l-113 100l-114 -100h-48l122 172h79z" />
    <glyph glyph-name="Atilde" unicode="&#xc3;" horiz-adv-x="889" 
d="M19 0v27q30 6 49.5 16t35.5 28t30 46t33 70l188 419q-4 10 -8.5 20t-12.5 13q25 21 49.5 43.5t44.5 48.5q5 7 8 9t6 2q4 0 6.5 -3.5t9.5 -17.5l301 -621q10 -22 20.5 -35.5t23 -21t29 -11t39.5 -5.5v-27h-352v27q52 0 70.5 11.5t18.5 29.5q0 17 -11 38.5t-18 35.5l-37 75
h-322l-31 -74q-10 -23 -16.5 -43.5t-6.5 -29.5q0 -20 21 -31.5t66 -11.5v-27h-234zM233 252h289l-149 311zM613 909q-5 -23 -14 -44.5t-22.5 -38t-33 -26.5t-46.5 -10q-22 0 -42.5 7.5t-39.5 17.5q-19 9 -35 16.5t-30 7.5q-21 0 -34 -14t-18 -33h-37q4 22 12.5 43t22.5 37
t33.5 25.5t44.5 9.5t44.5 -7.5t37.5 -15.5q17 -9 34 -16.5t35 -7.5q23 0 33 15.5t18 33.5h37z" />
    <glyph glyph-name="Adieresis" unicode="&#xc4;" horiz-adv-x="889" 
d="M19 0v27q30 6 49.5 16t35.5 28t30 46t33 70l188 419q-4 10 -8.5 20t-12.5 13q25 21 49.5 43.5t44.5 48.5q5 7 8 9t6 2q4 0 6.5 -3.5t9.5 -17.5l301 -621q10 -22 20.5 -35.5t23 -21t29 -11t39.5 -5.5v-27h-352v27q52 0 70.5 11.5t18.5 29.5q0 17 -11 38.5t-18 35.5l-37 75
h-322l-31 -74q-10 -23 -16.5 -43.5t-6.5 -29.5q0 -20 21 -31.5t66 -11.5v-27h-234zM233 252h289l-149 311zM540 899q24 0 41.5 -17t17.5 -42t-17.5 -42t-41.5 -17q-26 0 -42.5 17t-16.5 42t16.5 42t42.5 17zM334 781q-26 0 -42.5 17t-16.5 42t16.5 42t42.5 17q24 0 41.5 -17
t17.5 -42t-17.5 -42t-41.5 -17z" />
    <glyph glyph-name="Aring" unicode="&#xc5;" horiz-adv-x="889" 
d="M19 0v27q30 6 49.5 16t35.5 28t30 46t33 70l188 419q-4 10 -8.5 20t-12.5 13q25 21 49.5 43.5t44.5 48.5q5 7 8 9t6 2q4 0 6.5 -3.5t9.5 -17.5l301 -621q10 -22 20.5 -35.5t23 -21t29 -11t39.5 -5.5v-27h-352v27q52 0 70.5 11.5t18.5 29.5q0 17 -11 38.5t-18 35.5l-37 75
h-322l-31 -74q-10 -23 -16.5 -43.5t-6.5 -29.5q0 -20 21 -31.5t66 -11.5v-27h-234zM233 252h289l-149 311zM438 980q21 0 41 -9.5t36 -25t25.5 -36t9.5 -41.5t-9.5 -41.5t-25 -36t-36 -25t-41.5 -9.5q-22 0 -42 9.5t-35.5 25t-25 35.5t-9.5 42q0 21 9.5 41.5t25 36t35.5 25
t42 9.5zM438 927q-25 0 -42 -17t-17 -42q0 -26 16.5 -42.5t42.5 -16.5q25 0 42 17t17 42q0 24 -17.5 41.5t-41.5 17.5z" />
    <glyph glyph-name="AE" unicode="&#xc6;" horiz-adv-x="1000" 
d="M-46 0v27q21 3 40 16t36 42l275 486q13 22 20 43t7 34q0 12 -4.5 22t-17.5 17t-36.5 10.5t-60.5 3.5v27h651l76 -191l-18 -7q-34 43 -63.5 75t-59.5 53.5t-63 32t-73 10.5h-83v-323q34 0 69 7t63.5 24t48.5 45t24 71h24v-339h-24q-8 85 -61 125t-144 40v-324h63
q62 0 102.5 10.5t71.5 33t57.5 57t61.5 83.5l22 -12l-56 -199h-541v27q24 0 39 3t22.5 12.5t10 28.5t2.5 51v219h-218l-129 -235q-13 -23 -13 -41q0 -17 17.5 -27.5t62.5 -10.5v-27h-201zM435 376v327h-15l-185 -327h200z" />
    <glyph glyph-name="Ccedilla" unicode="&#xc7;" horiz-adv-x="833" 
d="M774 -14h-16q-13 20 -27 36.5t-32 16.5q-9 0 -37 -10t-60 -19q-26 -8 -66.5 -14.5t-96.5 -8.5l-24 -51q11 2 21.5 4t22.5 0q34 -4 54.5 -20t20.5 -54q0 -24 -12.5 -40t-31.5 -25.5t-41.5 -13t-41.5 -3.5q-23 0 -47.5 3.5t-45.5 12.5l17 35q30 -12 62 -12q26 0 43 12.5
t13 28.5q-1 18 -14 27t-33 10q-8 -1 -15 -2t-14 -3l-11 8l37 83q-74 3 -141 33t-117.5 81t-80.5 118.5t-30 144.5q0 79 31.5 148t84 120t121.5 80.5t145 29.5q71 0 111 -7.5t67 -15.5q28 -9 52 -16.5t63 -7.5q25 0 33 11.5t15 25.5h25v-247h-32q-19 44 -48.5 85t-67 73.5
t-82.5 52t-96 19.5q-80 0 -132 -28.5t-82.5 -76.5t-42 -112t-10.5 -134q0 -60 11 -122t37 -113t69.5 -83.5t109.5 -32.5q78 0 137.5 27.5t101.5 66t66.5 78t33.5 63.5h23v-262z" />
    <glyph glyph-name="Egrave" unicode="&#xc8;" horiz-adv-x="778" 
d="M133 606q0 32 -2.5 51t-10 28.5t-22.5 12.5t-39 3v27h584l76 -191l-18 -7q-34 43 -63.5 75t-59.5 53.5t-63 32t-73 10.5h-164v-312h58q38 0 74.5 7t66.5 24t50 45t24 71h24v-339h-24q-4 42 -17 73.5t-38.5 51.5t-64.5 30t-95 10h-58v-286q0 -29 6 -39t32 -10h105
q62 0 102.5 10.5t71.5 33t57.5 57t61.5 83.5l22 -12l-56 -199h-621v27q24 0 39 3t22.5 12.5t10 28.5t2.5 51v484zM416 770l-165 101q-21 15 -21 39q0 16 13 27.5t30 11.5t29 -8t23 -19l141 -152h-50z" />
    <glyph glyph-name="Eacute" unicode="&#xc9;" horiz-adv-x="778" 
d="M133 606q0 32 -2.5 51t-10 28.5t-22.5 12.5t-39 3v27h584l76 -191l-18 -7q-34 43 -63.5 75t-59.5 53.5t-63 32t-73 10.5h-164v-312h58q38 0 74.5 7t66.5 24t50 45t24 71h24v-339h-24q-4 42 -17 73.5t-38.5 51.5t-64.5 30t-95 10h-58v-286q0 -29 6 -39t32 -10h105
q62 0 102.5 10.5t71.5 33t57.5 57t61.5 83.5l22 -12l-56 -199h-621v27q24 0 39 3t22.5 12.5t10 28.5t2.5 51v484zM312 770l141 152q11 11 23 19t29 8t30 -11.5t13 -27.5q0 -24 -21 -39l-165 -101h-50z" />
    <glyph glyph-name="Ecircumflex" unicode="&#xca;" horiz-adv-x="778" 
d="M133 606q0 32 -2.5 51t-10 28.5t-22.5 12.5t-39 3v27h584l76 -191l-18 -7q-34 43 -63.5 75t-59.5 53.5t-63 32t-73 10.5h-164v-312h58q38 0 74.5 7t66.5 24t50 45t24 71h24v-339h-24q-4 42 -17 73.5t-38.5 51.5t-64.5 30t-95 10h-58v-286q0 -29 6 -39t32 -10h105
q62 0 102.5 10.5t71.5 33t57.5 57t61.5 83.5l22 -12l-56 -199h-621v27q24 0 39 3t22.5 12.5t10 28.5t2.5 51v484zM427 942l124 -172h-50l-113 100l-114 -100h-48l122 172h79z" />
    <glyph glyph-name="Edieresis" unicode="&#xcb;" horiz-adv-x="778" 
d="M133 606q0 32 -2.5 51t-10 28.5t-22.5 12.5t-39 3v27h584l76 -191l-18 -7q-34 43 -63.5 75t-59.5 53.5t-63 32t-73 10.5h-164v-312h58q38 0 74.5 7t66.5 24t50 45t24 71h24v-339h-24q-4 42 -17 73.5t-38.5 51.5t-64.5 30t-95 10h-58v-286q0 -29 6 -39t32 -10h105
q62 0 102.5 10.5t71.5 33t57.5 57t61.5 83.5l22 -12l-56 -199h-621v27q24 0 39 3t22.5 12.5t10 28.5t2.5 51v484zM491 899q24 0 41.5 -17t17.5 -42t-17.5 -42t-41.5 -17q-26 0 -42.5 17t-16.5 42t16.5 42t42.5 17zM285 781q-26 0 -42.5 17t-16.5 42t16.5 42t42.5 17
q24 0 41.5 -17t17.5 -42t-17.5 -42t-41.5 -17z" />
    <glyph glyph-name="Igrave" unicode="&#xcc;" horiz-adv-x="444" 
d="M150 606q0 32 -3 51t-13.5 28.5t-30.5 12.5t-55 3v27h349v-27q-35 0 -55 -3t-30.5 -12.5t-13.5 -28.5t-3 -51v-484q0 -32 3 -51t13.5 -28.5t30.5 -12.5t55 -3v-27h-349v27q35 0 55 3t30.5 12.5t13.5 28.5t3 51v484zM244 770l-165 101q-21 15 -21 39q0 16 13 27.5t30 11.5
t29 -8t23 -19l141 -152h-50z" />
    <glyph glyph-name="Iacute" unicode="&#xcd;" horiz-adv-x="444" 
d="M150 606q0 32 -3 51t-13.5 28.5t-30.5 12.5t-55 3v27h349v-27q-35 0 -55 -3t-30.5 -12.5t-13.5 -28.5t-3 -51v-484q0 -32 3 -51t13.5 -28.5t30.5 -12.5t55 -3v-27h-349v27q35 0 55 3t30.5 12.5t13.5 28.5t3 51v484zM140 770l141 152q11 11 23 19t29 8t30 -11.5t13 -27.5
q0 -24 -21 -39l-165 -101h-50z" />
    <glyph glyph-name="Icircumflex" unicode="&#xce;" horiz-adv-x="444" 
d="M150 606q0 32 -3 51t-13.5 28.5t-30.5 12.5t-55 3v27h349v-27q-35 0 -55 -3t-30.5 -12.5t-13.5 -28.5t-3 -51v-484q0 -32 3 -51t13.5 -28.5t30.5 -12.5t55 -3v-27h-349v27q35 0 55 3t30.5 12.5t13.5 28.5t3 51v484zM255 942l124 -172h-50l-113 100l-114 -100h-48l122 172
h79z" />
    <glyph glyph-name="Idieresis" unicode="&#xcf;" horiz-adv-x="444" 
d="M150 606q0 32 -3 51t-13.5 28.5t-30.5 12.5t-55 3v27h349v-27q-35 0 -55 -3t-30.5 -12.5t-13.5 -28.5t-3 -51v-484q0 -32 3 -51t13.5 -28.5t30.5 -12.5t55 -3v-27h-349v27q35 0 55 3t30.5 12.5t13.5 28.5t3 51v484zM319 899q24 0 41.5 -17t17.5 -42t-17.5 -42t-41.5 -17
q-26 0 -42.5 17t-16.5 42t16.5 42t42.5 17zM113 781q-26 0 -42.5 17t-16.5 42t16.5 42t42.5 17q24 0 41.5 -17t17.5 -42t-17.5 -42t-41.5 -17z" />
    <glyph glyph-name="Eth" unicode="&#xd0;" horiz-adv-x="889" 
d="M278 122q-1 -32 3 -51t17 -29t37 -12.5t63 -2.5q76 0 131.5 26t91.5 71.5t53.5 107t17.5 132.5t-20.5 132.5t-58.5 107t-92.5 71.5t-122.5 26q-44 0 -68 -1.5t-35.5 -5.5t-14 -11.5t-2.5 -18.5v-230h228v-49h-228v-263zM44 385v49h89v172q0 32 -2.5 51t-12 28.5t-27 12.5
t-47.5 3v27h402q78 0 150.5 -26t128 -73.5t89 -114.5t33.5 -150q0 -84 -29 -151.5t-80 -114.5t-121 -72.5t-152 -25.5h-421v27q30 0 47.5 3t27 12.5t12 28.5t2.5 51v263h-89z" />
    <glyph glyph-name="Ntilde" unicode="&#xd1;" horiz-adv-x="944" 
d="M170 121q0 -27 9 -45t24.5 -29t36.5 -15.5t46 -4.5v-27h-252v27q48 3 73 26t25 68v545q0 12 -11.5 18.5t-27 10t-31 4.5t-23.5 2v27h269l469 -532v411q0 29 -6 47.5t-19.5 29t-35 14t-52.5 3.5v27h245v-27q-27 0 -45 -3.5t-29 -13.5t-15.5 -28.5t-4.5 -48.5v-621h-40
l-602 674h-3v-539zM647 909q-5 -23 -14 -44.5t-22.5 -38t-33 -26.5t-46.5 -10q-22 0 -42.5 7.5t-39.5 17.5q-19 9 -35 16.5t-30 7.5q-21 0 -34 -14t-18 -33h-37q4 22 12.5 43t22.5 37t33.5 25.5t44.5 9.5t44.5 -7.5t37.5 -15.5q17 -9 34 -16.5t35 -7.5q23 0 33 15.5t18 33.5
h37z" />
    <glyph glyph-name="Ograve" unicode="&#xd2;" horiz-adv-x="833" 
d="M643 364q0 60 -11 122t-37 113t-69.5 83.5t-108.5 32.5q-66 0 -109.5 -32.5t-69.5 -83.5t-37 -113t-11 -122t11 -122t37 -113t69.5 -83.5t109.5 -32.5q65 0 108.5 32.5t69.5 83.5t37 113t11 122zM798 364q0 -79 -31.5 -148t-84 -120t-121.5 -80.5t-144 -29.5
q-76 0 -145 29.5t-121.5 80.5t-84 120t-31.5 148t31.5 148t84 120t121.5 80.5t145 29.5q75 0 144 -29.5t121.5 -80.5t84 -120t31.5 -148zM437 770l-165 101q-21 15 -21 39q0 16 13 27.5t30 11.5t29 -8t23 -19l141 -152h-50z" />
    <glyph glyph-name="Oacute" unicode="&#xd3;" horiz-adv-x="833" 
d="M643 364q0 60 -11 122t-37 113t-69.5 83.5t-108.5 32.5q-66 0 -109.5 -32.5t-69.5 -83.5t-37 -113t-11 -122t11 -122t37 -113t69.5 -83.5t109.5 -32.5q65 0 108.5 32.5t69.5 83.5t37 113t11 122zM798 364q0 -79 -31.5 -148t-84 -120t-121.5 -80.5t-144 -29.5
q-76 0 -145 29.5t-121.5 80.5t-84 120t-31.5 148t31.5 148t84 120t121.5 80.5t145 29.5q75 0 144 -29.5t121.5 -80.5t84 -120t31.5 -148zM333 770l141 152q11 11 23 19t29 8t30 -11.5t13 -27.5q0 -24 -21 -39l-165 -101h-50z" />
    <glyph glyph-name="Ocircumflex" unicode="&#xd4;" horiz-adv-x="833" 
d="M643 364q0 60 -11 122t-37 113t-69.5 83.5t-108.5 32.5q-66 0 -109.5 -32.5t-69.5 -83.5t-37 -113t-11 -122t11 -122t37 -113t69.5 -83.5t109.5 -32.5q65 0 108.5 32.5t69.5 83.5t37 113t11 122zM798 364q0 -79 -31.5 -148t-84 -120t-121.5 -80.5t-144 -29.5
q-76 0 -145 29.5t-121.5 80.5t-84 120t-31.5 148t31.5 148t84 120t121.5 80.5t145 29.5q75 0 144 -29.5t121.5 -80.5t84 -120t31.5 -148zM448 942l124 -172h-50l-113 100l-114 -100h-48l122 172h79z" />
    <glyph glyph-name="Otilde" unicode="&#xd5;" horiz-adv-x="833" 
d="M643 364q0 60 -11 122t-37 113t-69.5 83.5t-108.5 32.5q-66 0 -109.5 -32.5t-69.5 -83.5t-37 -113t-11 -122t11 -122t37 -113t69.5 -83.5t109.5 -32.5q65 0 108.5 32.5t69.5 83.5t37 113t11 122zM798 364q0 -79 -31.5 -148t-84 -120t-121.5 -80.5t-144 -29.5
q-76 0 -145 29.5t-121.5 80.5t-84 120t-31.5 148t31.5 148t84 120t121.5 80.5t145 29.5q75 0 144 -29.5t121.5 -80.5t84 -120t31.5 -148zM585 909q-5 -23 -14 -44.5t-22.5 -38t-33 -26.5t-46.5 -10q-22 0 -42.5 7.5t-39.5 17.5q-19 9 -35 16.5t-30 7.5q-21 0 -34 -14
t-18 -33h-37q4 22 12.5 43t22.5 37t33.5 25.5t44.5 9.5t44.5 -7.5t37.5 -15.5q17 -9 34 -16.5t35 -7.5q23 0 33 15.5t18 33.5h37z" />
    <glyph glyph-name="Odieresis" unicode="&#xd6;" horiz-adv-x="833" 
d="M643 364q0 60 -11 122t-37 113t-69.5 83.5t-108.5 32.5q-66 0 -109.5 -32.5t-69.5 -83.5t-37 -113t-11 -122t11 -122t37 -113t69.5 -83.5t109.5 -32.5q65 0 108.5 32.5t69.5 83.5t37 113t11 122zM798 364q0 -79 -31.5 -148t-84 -120t-121.5 -80.5t-144 -29.5
q-76 0 -145 29.5t-121.5 80.5t-84 120t-31.5 148t31.5 148t84 120t121.5 80.5t145 29.5q75 0 144 -29.5t121.5 -80.5t84 -120t31.5 -148zM512 899q24 0 41.5 -17t17.5 -42t-17.5 -42t-41.5 -17q-26 0 -42.5 17t-16.5 42t16.5 42t42.5 17zM306 781q-26 0 -42.5 17t-16.5 42
t16.5 42t42.5 17q24 0 41.5 -17t17.5 -42t-17.5 -42t-41.5 -17z" />
    <glyph glyph-name="multiply" unicode="&#xd7;" horiz-adv-x="600" 
d="M79 392l50 52l171 -171l171 171l50 -52l-170 -170l170 -170l-50 -52l-171 171l-171 -171l-50 52l170 170z" />
    <glyph glyph-name="Oslash" unicode="&#xd8;" horiz-adv-x="833" 
d="M260 95q26 -38 64.5 -60t92.5 -22q65 0 108.5 32.5t69.5 83.5t37 113t11 122q0 57 -10 116t-34 109zM719 763l-70 -102q67 -51 108 -128t41 -169q0 -79 -31.5 -148t-84 -120t-121.5 -80.5t-144 -29.5q-52 0 -101.5 14.5t-92.5 41.5l-72 -105h-54l89 129
q-68 51 -109.5 128.5t-41.5 169.5q0 79 31.5 148t84 120t121.5 80.5t145 29.5q54 0 103.5 -15t93.5 -43l55 79h50zM576 629q-26 39 -65 62.5t-94 23.5q-66 0 -109.5 -32.5t-69.5 -83.5t-37 -113t-11 -122q0 -58 10 -118t35 -110z" />
    <glyph glyph-name="Ugrave" unicode="&#xd9;" horiz-adv-x="944" 
d="M274 255q0 -72 18.5 -119t49.5 -74.5t71.5 -38t84.5 -10.5q49 0 99 11t90 35.5t65 65t25 99.5v383q0 29 -6 47.5t-19.5 29t-35 14t-52.5 3.5v27h245v-27q-27 0 -45 -3.5t-29 -13.5t-15.5 -28.5t-4.5 -48.5v-379q0 -75 -32 -122t-82.5 -74t-112 -36.5t-121.5 -9.5
q-71 0 -133 13t-107.5 44t-71.5 83t-26 129v351q0 51 -18.5 73t-66.5 22v27h332v-27q-35 0 -55 -3t-30.5 -12.5t-13.5 -28.5t-3 -51v-351zM518 770l-165 101q-21 15 -21 39q0 16 13 27.5t30 11.5t29 -8t23 -19l141 -152h-50z" />
    <glyph glyph-name="Uacute" unicode="&#xda;" horiz-adv-x="944" 
d="M274 255q0 -72 18.5 -119t49.5 -74.5t71.5 -38t84.5 -10.5q49 0 99 11t90 35.5t65 65t25 99.5v383q0 29 -6 47.5t-19.5 29t-35 14t-52.5 3.5v27h245v-27q-27 0 -45 -3.5t-29 -13.5t-15.5 -28.5t-4.5 -48.5v-379q0 -75 -32 -122t-82.5 -74t-112 -36.5t-121.5 -9.5
q-71 0 -133 13t-107.5 44t-71.5 83t-26 129v351q0 51 -18.5 73t-66.5 22v27h332v-27q-35 0 -55 -3t-30.5 -12.5t-13.5 -28.5t-3 -51v-351zM414 770l141 152q11 11 23 19t29 8t30 -11.5t13 -27.5q0 -24 -21 -39l-165 -101h-50z" />
    <glyph glyph-name="Ucircumflex" unicode="&#xdb;" horiz-adv-x="944" 
d="M274 255q0 -72 18.5 -119t49.5 -74.5t71.5 -38t84.5 -10.5q49 0 99 11t90 35.5t65 65t25 99.5v383q0 29 -6 47.5t-19.5 29t-35 14t-52.5 3.5v27h245v-27q-27 0 -45 -3.5t-29 -13.5t-15.5 -28.5t-4.5 -48.5v-379q0 -75 -32 -122t-82.5 -74t-112 -36.5t-121.5 -9.5
q-71 0 -133 13t-107.5 44t-71.5 83t-26 129v351q0 51 -18.5 73t-66.5 22v27h332v-27q-35 0 -55 -3t-30.5 -12.5t-13.5 -28.5t-3 -51v-351zM529 942l124 -172h-50l-113 100l-114 -100h-48l122 172h79z" />
    <glyph glyph-name="Udieresis" unicode="&#xdc;" horiz-adv-x="944" 
d="M274 255q0 -72 18.5 -119t49.5 -74.5t71.5 -38t84.5 -10.5q49 0 99 11t90 35.5t65 65t25 99.5v383q0 29 -6 47.5t-19.5 29t-35 14t-52.5 3.5v27h245v-27q-27 0 -45 -3.5t-29 -13.5t-15.5 -28.5t-4.5 -48.5v-379q0 -75 -32 -122t-82.5 -74t-112 -36.5t-121.5 -9.5
q-71 0 -133 13t-107.5 44t-71.5 83t-26 129v351q0 51 -18.5 73t-66.5 22v27h332v-27q-35 0 -55 -3t-30.5 -12.5t-13.5 -28.5t-3 -51v-351zM593 899q24 0 41.5 -17t17.5 -42t-17.5 -42t-41.5 -17q-26 0 -42.5 17t-16.5 42t16.5 42t42.5 17zM387 781q-26 0 -42.5 17t-16.5 42
t16.5 42t42.5 17q24 0 41.5 -17t17.5 -42t-17.5 -42t-41.5 -17z" />
    <glyph glyph-name="Yacute" unicode="&#xdd;" horiz-adv-x="889" 
d="M512 399l176 233q5 7 11.5 17t6.5 19q0 13 -15 23t-59 10v27h233v-27q-34 0 -57 -7t-41 -20.5t-33.5 -32.5t-33.5 -43l-176 -234v-242q0 -32 3 -51t14.5 -28.5t34.5 -12.5t62 -3v-27h-373v27q39 0 62 3t34.5 12.5t14.5 28.5t3 51v205l-239 331q-10 13 -17.5 21.5
t-18.5 13t-29.5 6.5t-49.5 2v27h377v-27q-48 -1 -66 -7.5t-19 -20.5q0 -5 5.5 -13.5t8.5 -13.5zM368 770l141 152q11 11 23 19t29 8t30 -11.5t13 -27.5q0 -24 -21 -39l-165 -101h-50z" />
    <glyph glyph-name="Thorn" unicode="&#xde;" horiz-adv-x="722" 
d="M275 239v-117q0 -32 3 -51t13.5 -28.5t30.5 -12.5t55 -3v-27h-349v27q35 0 55 3t30.5 12.5t13.5 28.5t3 51v484q0 32 -3 51t-13.5 28.5t-30.5 12.5t-55 3v27h349v-27q-33 0 -53 -2.5t-31 -11.5t-14.5 -26t-3.5 -47h64q165 0 250.5 -53t85.5 -159q0 -32 -11.5 -61
t-39.5 -52t-75.5 -36.5t-119.5 -13.5h-154zM356 266q87 0 130.5 45.5t43.5 120.5q0 43 -15 72.5t-40.5 48t-60 26.5t-73.5 8q-26 0 -42 -1.5t-24 -8.5v-311h81z" />
    <glyph glyph-name="germandbls" unicode="&#xdf;" 
d="M273 406q54 0 71.5 40t17.5 116q0 41 -4 69.5t-13.5 46.5t-26 26.5t-41.5 8.5q-46 0 -65.5 -31.5t-21.5 -93.5v-527q0 -12 2 -19t6.5 -11t14 -5t24.5 -2v-24h-216v24q20 1 31.5 2.5t17 5t7 10.5t1.5 19v453q0 107 49 165t161 58q40 0 76 -12t63 -34.5t43 -56t16 -75.5
q0 -31 -10 -55.5t-27.5 -43.5t-41.5 -32.5t-51 -23.5v-10q38 -9 70 -26.5t55 -44t36 -60.5t13 -74q0 -38 -9.5 -74t-29.5 -65t-50.5 -46.5t-73.5 -17.5q-52 0 -81 21t-29 70q0 19 9 33.5t29 14.5q12 0 20 -6t8 -16q0 -8 -2 -17.5t-4 -17.5t-4 -13.5t-2 -9.5q0 -14 10.5 -23
t24.5 -9q16 0 26.5 13t17 35t9.5 50.5t3 60.5q0 66 -3.5 106t-16.5 61.5t-38.5 30t-70.5 12.5v24z" />
    <glyph glyph-name="agrave" unicode="&#xe0;" 
d="M354 256q-53 -15 -87.5 -31.5t-54.5 -34.5t-28 -36.5t-8 -37.5q0 -38 24.5 -57t59.5 -19q26 0 50.5 15.5t43.5 32.5v168zM556 67q-10 -36 -37 -58.5t-65 -22.5q-40 0 -66 15t-35 55q-36 -32 -75.5 -51t-88.5 -19q-21 0 -43 5t-39.5 16t-29 28.5t-11.5 41.5
q0 35 21.5 63.5t59.5 53.5t91 46t116 41v57q0 22 -8.5 38.5t-22.5 27t-31 16t-35 5.5q-41 0 -66.5 -22.5t-25.5 -66.5q0 -7 1 -11q1 -5 1.5 -9t0.5 -9q0 -58 -62 -58q-27 0 -40 17t-11 42q-1 20 18 46t53.5 49t83 39t105.5 16q72 0 111.5 -25.5t39.5 -73.5v-286
q0 -20 5.5 -26.5t15.5 -6.5q14 0 29 8.5t21 26.5zM314 505l-165 101q-21 15 -21 39q0 16 13 27.5t30 11.5t29 -8t23 -19l141 -152h-50z" />
    <glyph glyph-name="aacute" unicode="&#xe1;" 
d="M354 256q-53 -15 -87.5 -31.5t-54.5 -34.5t-28 -36.5t-8 -37.5q0 -38 24.5 -57t59.5 -19q26 0 50.5 15.5t43.5 32.5v168zM556 67q-10 -36 -37 -58.5t-65 -22.5q-40 0 -66 15t-35 55q-36 -32 -75.5 -51t-88.5 -19q-21 0 -43 5t-39.5 16t-29 28.5t-11.5 41.5
q0 35 21.5 63.5t59.5 53.5t91 46t116 41v57q0 22 -8.5 38.5t-22.5 27t-31 16t-35 5.5q-41 0 -66.5 -22.5t-25.5 -66.5q0 -7 1 -11q1 -5 1.5 -9t0.5 -9q0 -58 -62 -58q-27 0 -40 17t-11 42q-1 20 18 46t53.5 49t83 39t105.5 16q72 0 111.5 -25.5t39.5 -73.5v-286
q0 -20 5.5 -26.5t15.5 -6.5q14 0 29 8.5t21 26.5zM210 505l141 152q11 11 23 19t29 8t30 -11.5t13 -27.5q0 -24 -21 -39l-165 -101h-50z" />
    <glyph glyph-name="acircumflex" unicode="&#xe2;" 
d="M354 256q-53 -15 -87.5 -31.5t-54.5 -34.5t-28 -36.5t-8 -37.5q0 -38 24.5 -57t59.5 -19q26 0 50.5 15.5t43.5 32.5v168zM556 67q-10 -36 -37 -58.5t-65 -22.5q-40 0 -66 15t-35 55q-36 -32 -75.5 -51t-88.5 -19q-21 0 -43 5t-39.5 16t-29 28.5t-11.5 41.5
q0 35 21.5 63.5t59.5 53.5t91 46t116 41v57q0 22 -8.5 38.5t-22.5 27t-31 16t-35 5.5q-41 0 -66.5 -22.5t-25.5 -66.5q0 -7 1 -11q1 -5 1.5 -9t0.5 -9q0 -58 -62 -58q-27 0 -40 17t-11 42q-1 20 18 46t53.5 49t83 39t105.5 16q72 0 111.5 -25.5t39.5 -73.5v-286
q0 -20 5.5 -26.5t15.5 -6.5q14 0 29 8.5t21 26.5zM325 677l124 -172h-50l-113 100l-114 -100h-48l122 172h79z" />
    <glyph glyph-name="atilde" unicode="&#xe3;" 
d="M354 256q-53 -15 -87.5 -31.5t-54.5 -34.5t-28 -36.5t-8 -37.5q0 -38 24.5 -57t59.5 -19q26 0 50.5 15.5t43.5 32.5v168zM556 67q-10 -36 -37 -58.5t-65 -22.5q-40 0 -66 15t-35 55q-36 -32 -75.5 -51t-88.5 -19q-21 0 -43 5t-39.5 16t-29 28.5t-11.5 41.5
q0 35 21.5 63.5t59.5 53.5t91 46t116 41v57q0 22 -8.5 38.5t-22.5 27t-31 16t-35 5.5q-41 0 -66.5 -22.5t-25.5 -66.5q0 -7 1 -11q1 -5 1.5 -9t0.5 -9q0 -58 -62 -58q-27 0 -40 17t-11 42q-1 20 18 46t53.5 49t83 39t105.5 16q72 0 111.5 -25.5t39.5 -73.5v-286
q0 -20 5.5 -26.5t15.5 -6.5q14 0 29 8.5t21 26.5zM462 644q-5 -23 -14 -44.5t-22.5 -38t-33 -26.5t-46.5 -10q-22 0 -42.5 7.5t-39.5 17.5q-19 9 -35 16.5t-30 7.5q-21 0 -34 -14t-18 -33h-37q4 22 12.5 43t22.5 37t33.5 25.5t44.5 9.5t44.5 -7.5t37.5 -15.5q17 -9 34 -16.5
t35 -7.5q23 0 33 15.5t18 33.5h37z" />
    <glyph glyph-name="adieresis" unicode="&#xe4;" 
d="M354 256q-53 -15 -87.5 -31.5t-54.5 -34.5t-28 -36.5t-8 -37.5q0 -38 24.5 -57t59.5 -19q26 0 50.5 15.5t43.5 32.5v168zM556 67q-10 -36 -37 -58.5t-65 -22.5q-40 0 -66 15t-35 55q-36 -32 -75.5 -51t-88.5 -19q-21 0 -43 5t-39.5 16t-29 28.5t-11.5 41.5
q0 35 21.5 63.5t59.5 53.5t91 46t116 41v57q0 22 -8.5 38.5t-22.5 27t-31 16t-35 5.5q-41 0 -66.5 -22.5t-25.5 -66.5q0 -7 1 -11q1 -5 1.5 -9t0.5 -9q0 -58 -62 -58q-27 0 -40 17t-11 42q-1 20 18 46t53.5 49t83 39t105.5 16q72 0 111.5 -25.5t39.5 -73.5v-286
q0 -20 5.5 -26.5t15.5 -6.5q14 0 29 8.5t21 26.5zM389 634q24 0 41.5 -17t17.5 -42t-17.5 -42t-41.5 -17q-26 0 -42.5 17t-16.5 42t16.5 42t42.5 17zM183 516q-26 0 -42.5 17t-16.5 42t16.5 42t42.5 17q24 0 41.5 -17t17.5 -42t-17.5 -42t-41.5 -17z" />
    <glyph glyph-name="aring" unicode="&#xe5;" 
d="M354 256q-53 -15 -87.5 -31.5t-54.5 -34.5t-28 -36.5t-8 -37.5q0 -38 24.5 -57t59.5 -19q26 0 50.5 15.5t43.5 32.5v168zM556 67q-10 -36 -37 -58.5t-65 -22.5q-40 0 -66 15t-35 55q-36 -32 -75.5 -51t-88.5 -19q-21 0 -43 5t-39.5 16t-29 28.5t-11.5 41.5
q0 35 21.5 63.5t59.5 53.5t91 46t116 41v57q0 22 -8.5 38.5t-22.5 27t-31 16t-35 5.5q-41 0 -66.5 -22.5t-25.5 -66.5q0 -7 1 -11q1 -5 1.5 -9t0.5 -9q0 -58 -62 -58q-27 0 -40 17t-11 42q-1 20 18 46t53.5 49t83 39t105.5 16q72 0 111.5 -25.5t39.5 -73.5v-286
q0 -20 5.5 -26.5t15.5 -6.5q14 0 29 8.5t21 26.5zM287 715q21 0 41 -9.5t36 -25t25.5 -36t9.5 -41.5t-9.5 -41.5t-25 -36t-36 -25t-41.5 -9.5q-22 0 -42 9.5t-35.5 25t-25 35.5t-9.5 42q0 21 9.5 41.5t25 36t35.5 25t42 9.5zM287 662q-25 0 -42 -17t-17 -42
q0 -26 16.5 -42.5t42.5 -16.5q25 0 42 17t17 42q0 24 -17.5 41.5t-41.5 17.5z" />
    <glyph glyph-name="ae" unicode="&#xe6;" horiz-adv-x="833" 
d="M652 300q14 0 19.5 4t5.5 20q0 23 -8 43t-21.5 35t-32 23.5t-38.5 8.5q-32 0 -52.5 -12.5t-33.5 -32t-19 -43t-7 -46.5h187zM465 265q-2 -36 8 -70t30.5 -60.5t51 -42.5t69.5 -16q52 0 88 21.5t67 62.5l14 -15q-30 -74 -82.5 -116.5t-136.5 -42.5q-60 0 -109 24.5
t-77 69.5q-42 -37 -91.5 -65.5t-108.5 -28.5q-21 0 -43 5t-39.5 16t-29 28.5t-11.5 41.5q0 35 21.5 63.5t59.5 53.5t91 46t116 41v57q0 22 -8.5 38.5t-22.5 27t-31 16t-35 5.5q-41 0 -66.5 -22.5t-25.5 -66.5q0 -7 1 -11q1 -5 1.5 -9t0.5 -9q0 -58 -62 -58q-27 0 -40 17
t-11 42q-1 20 18 46t53.5 49t83 39t105.5 16q40 0 74 -13t52 -42q28 24 66 39.5t82 15.5q40 0 77 -14.5t65 -40t44.5 -61t16.5 -77.5h-326zM353 253q-53 -15 -87.5 -31.5t-54.5 -34.5t-28 -36.5t-8 -37.5q0 -38 24.5 -57t59.5 -19q26 0 50.5 15.5t43.5 32.5v168z" />
    <glyph glyph-name="ccedilla" unicode="&#xe7;" horiz-adv-x="500" 
d="M458 183q-1 -90 -55.5 -140t-139.5 -55l-25 -52q11 2 21.5 4t22.5 0q34 -4 54.5 -20t20.5 -54q0 -24 -12.5 -40t-31.5 -25.5t-41.5 -13t-41.5 -3.5q-23 0 -47.5 3.5t-45.5 12.5l17 35q30 -12 62 -12q26 0 43 12.5t13 28.5q-1 18 -14 27t-33 10q-8 -1 -15 -2t-14 -3l-11 8
l38 84q-45 3 -81 20t-61 45.5t-38.5 67.5t-13.5 86q0 52 16.5 97.5t47 79.5t73.5 54t96 20q36 0 70 -11.5t61 -30t43 -41.5t16 -45q0 -21 -14.5 -41.5t-45.5 -20.5q-23 0 -39.5 12t-29.5 44l-22 53q-10 23 -24.5 39.5t-40.5 16.5q-24 0 -41.5 -15t-29.5 -37.5t-18 -49.5
t-6 -52q0 -39 8 -78t27.5 -70t50.5 -50.5t78 -19.5q26 0 47.5 10t38 27t27.5 39t16 46h24z" />
    <glyph glyph-name="egrave" unicode="&#xe8;" horiz-adv-x="500" 
d="M470 145q-30 -74 -82.5 -116.5t-136.5 -42.5q-54 0 -95 16t-69 46t-42.5 72t-14.5 94q0 51 17.5 95.5t48.5 77.5t74.5 52t94.5 19q40 0 77 -14.5t65 -40t44.5 -61t16.5 -77.5h-326q-2 -36 8 -70t30.5 -60.5t51 -42.5t69.5 -16q52 0 88 21.5t67 62.5zM331 300q14 0 19.5 4
t5.5 20q0 23 -8 43t-21.5 35t-32 23.5t-38.5 8.5q-32 0 -52.5 -12.5t-33.5 -32t-19 -43t-7 -46.5h187zM277 505l-165 101q-21 15 -21 39q0 16 13 27.5t30 11.5t29 -8t23 -19l141 -152h-50z" />
    <glyph glyph-name="eacute" unicode="&#xe9;" horiz-adv-x="500" 
d="M470 145q-30 -74 -82.5 -116.5t-136.5 -42.5q-54 0 -95 16t-69 46t-42.5 72t-14.5 94q0 51 17.5 95.5t48.5 77.5t74.5 52t94.5 19q40 0 77 -14.5t65 -40t44.5 -61t16.5 -77.5h-326q-2 -36 8 -70t30.5 -60.5t51 -42.5t69.5 -16q52 0 88 21.5t67 62.5zM331 300q14 0 19.5 4
t5.5 20q0 23 -8 43t-21.5 35t-32 23.5t-38.5 8.5q-32 0 -52.5 -12.5t-33.5 -32t-19 -43t-7 -46.5h187zM173 505l141 152q11 11 23 19t29 8t30 -11.5t13 -27.5q0 -24 -21 -39l-165 -101h-50z" />
    <glyph glyph-name="ecircumflex" unicode="&#xea;" horiz-adv-x="500" 
d="M470 145q-30 -74 -82.5 -116.5t-136.5 -42.5q-54 0 -95 16t-69 46t-42.5 72t-14.5 94q0 51 17.5 95.5t48.5 77.5t74.5 52t94.5 19q40 0 77 -14.5t65 -40t44.5 -61t16.5 -77.5h-326q-2 -36 8 -70t30.5 -60.5t51 -42.5t69.5 -16q52 0 88 21.5t67 62.5zM331 300q14 0 19.5 4
t5.5 20q0 23 -8 43t-21.5 35t-32 23.5t-38.5 8.5q-32 0 -52.5 -12.5t-33.5 -32t-19 -43t-7 -46.5h187zM288 677l124 -172h-50l-113 100l-114 -100h-48l122 172h79z" />
    <glyph glyph-name="edieresis" unicode="&#xeb;" horiz-adv-x="500" 
d="M470 145q-30 -74 -82.5 -116.5t-136.5 -42.5q-54 0 -95 16t-69 46t-42.5 72t-14.5 94q0 51 17.5 95.5t48.5 77.5t74.5 52t94.5 19q40 0 77 -14.5t65 -40t44.5 -61t16.5 -77.5h-326q-2 -36 8 -70t30.5 -60.5t51 -42.5t69.5 -16q52 0 88 21.5t67 62.5zM331 300q14 0 19.5 4
t5.5 20q0 23 -8 43t-21.5 35t-32 23.5t-38.5 8.5q-32 0 -52.5 -12.5t-33.5 -32t-19 -43t-7 -46.5h187zM352 634q24 0 41.5 -17t17.5 -42t-17.5 -42t-41.5 -17q-26 0 -42.5 17t-16.5 42t16.5 42t42.5 17zM146 516q-26 0 -42.5 17t-16.5 42t16.5 42t42.5 17q24 0 41.5 -17
t17.5 -42t-17.5 -42t-41.5 -17z" />
    <glyph glyph-name="igrave" unicode="&#xec;" horiz-adv-x="278" 
d="M24 407q45 8 88 21.5t87 29.5v-397q0 -12 1.5 -19t7.5 -11t17 -5.5t30 -1.5v-24h-228v24q20 0 32 1.5t18 5.5t8 11t2 19v295q0 9 -12 17t-51 10v24zM166 505l-165 101q-21 15 -21 39q0 16 13 27.5t30 11.5t29 -8t23 -19l141 -152h-50z" />
    <glyph glyph-name="iacute" unicode="&#xed;" horiz-adv-x="278" 
d="M24 407q45 8 88 21.5t87 29.5v-397q0 -12 1.5 -19t7.5 -11t17 -5.5t30 -1.5v-24h-228v24q20 0 32 1.5t18 5.5t8 11t2 19v295q0 9 -12 17t-51 10v24zM62 505l141 152q11 11 23 19t29 8t30 -11.5t13 -27.5q0 -24 -21 -39l-165 -101h-50z" />
    <glyph glyph-name="icircumflex" unicode="&#xee;" horiz-adv-x="278" 
d="M24 407q45 8 88 21.5t87 29.5v-397q0 -12 1.5 -19t7.5 -11t17 -5.5t30 -1.5v-24h-228v24q20 0 32 1.5t18 5.5t8 11t2 19v295q0 9 -12 17t-51 10v24zM177 677l124 -172h-50l-113 100l-114 -100h-48l122 172h79z" />
    <glyph glyph-name="idieresis" unicode="&#xef;" horiz-adv-x="278" 
d="M24 407q45 8 88 21.5t87 29.5v-397q0 -12 1.5 -19t7.5 -11t17 -5.5t30 -1.5v-24h-228v24q20 0 32 1.5t18 5.5t8 11t2 19v295q0 9 -12 17t-51 10v24zM241 634q24 0 41.5 -17t17.5 -42t-17.5 -42t-41.5 -17q-26 0 -42.5 17t-16.5 42t16.5 42t42.5 17zM35 516
q-26 0 -42.5 17t-16.5 42t16.5 42t42.5 17q24 0 41.5 -17t17.5 -42t-17.5 -42t-41.5 -17z" />
    <glyph glyph-name="eth" unicode="&#xf0;" 
d="M398 222q0 109 -28.5 160.5t-91.5 51.5t-91.5 -51.5t-28.5 -160.5t28.5 -160.5t91.5 -51.5t91.5 51.5t28.5 160.5zM433 734l21 -30l-99 -59q46 -38 78.5 -82.5t53 -92t30 -97t9.5 -97.5q0 -72 -19.5 -126.5t-53.5 -91t-79 -54.5t-96 -18t-96 17.5t-79 48.5t-53.5 74.5
t-19.5 95.5t19.5 95.5t53.5 74.5t79 48.5t96 17.5q43 0 81 -13q-13 45 -29.5 85.5t-42.5 74.5l-117 -69l-21 30l115 68q-23 27 -56.5 48t-79.5 35l7 20q55 -6 101.5 -23.5t86.5 -44.5z" />
    <glyph glyph-name="ntilde" unicode="&#xf1;" horiz-adv-x="611" 
d="M84 337q0 23 -17.5 31t-37.5 13v24q43 10 84 23.5t83 29.5v-82q34 32 77.5 57t92.5 25q78 0 119.5 -42t41.5 -120v-235q0 -23 9.5 -30t47.5 -7v-24h-230v24q21 0 33 1.5t18 5.5t8 11t2 19v250q0 19 -7 36t-19.5 29.5t-29.5 20t-37 7.5q-32 0 -61.5 -12.5t-64.5 -44.5
v-286q0 -12 2 -19t8.5 -11t19.5 -5.5t36 -1.5v-24h-237v24q20 0 31.5 1.5t17.5 5.5t8 11t2 19v276zM481 644q-5 -23 -14 -44.5t-22.5 -38t-33 -26.5t-46.5 -10q-22 0 -42.5 7.5t-39.5 17.5q-19 9 -35 16.5t-30 7.5q-21 0 -34 -14t-18 -33h-37q4 22 12.5 43t22.5 37
t33.5 25.5t44.5 9.5t44.5 -7.5t37.5 -15.5q17 -9 34 -16.5t35 -7.5q23 0 33 15.5t18 33.5h37z" />
    <glyph glyph-name="ograve" unicode="&#xf2;" 
d="M398 222q0 109 -28.5 160.5t-91.5 51.5t-91.5 -51.5t-28.5 -160.5t28.5 -160.5t91.5 -51.5t91.5 51.5t28.5 160.5zM526 222q0 -52 -19.5 -95.5t-53.5 -74.5t-79 -48.5t-96 -17.5t-96 17.5t-79 48.5t-53.5 74.5t-19.5 95.5t19.5 95.5t53.5 74.5t79 48.5t96 17.5t96 -17.5
t79 -48.5t53.5 -74.5t19.5 -95.5zM300 505l-165 101q-21 15 -21 39q0 16 13 27.5t30 11.5t29 -8t23 -19l141 -152h-50z" />
    <glyph glyph-name="oacute" unicode="&#xf3;" 
d="M398 222q0 109 -28.5 160.5t-91.5 51.5t-91.5 -51.5t-28.5 -160.5t28.5 -160.5t91.5 -51.5t91.5 51.5t28.5 160.5zM526 222q0 -52 -19.5 -95.5t-53.5 -74.5t-79 -48.5t-96 -17.5t-96 17.5t-79 48.5t-53.5 74.5t-19.5 95.5t19.5 95.5t53.5 74.5t79 48.5t96 17.5t96 -17.5
t79 -48.5t53.5 -74.5t19.5 -95.5zM196 505l141 152q11 11 23 19t29 8t30 -11.5t13 -27.5q0 -24 -21 -39l-165 -101h-50z" />
    <glyph glyph-name="ocircumflex" unicode="&#xf4;" 
d="M398 222q0 109 -28.5 160.5t-91.5 51.5t-91.5 -51.5t-28.5 -160.5t28.5 -160.5t91.5 -51.5t91.5 51.5t28.5 160.5zM526 222q0 -52 -19.5 -95.5t-53.5 -74.5t-79 -48.5t-96 -17.5t-96 17.5t-79 48.5t-53.5 74.5t-19.5 95.5t19.5 95.5t53.5 74.5t79 48.5t96 17.5t96 -17.5
t79 -48.5t53.5 -74.5t19.5 -95.5zM311 677l124 -172h-50l-113 100l-114 -100h-48l122 172h79z" />
    <glyph glyph-name="otilde" unicode="&#xf5;" 
d="M398 222q0 109 -28.5 160.5t-91.5 51.5t-91.5 -51.5t-28.5 -160.5t28.5 -160.5t91.5 -51.5t91.5 51.5t28.5 160.5zM526 222q0 -52 -19.5 -95.5t-53.5 -74.5t-79 -48.5t-96 -17.5t-96 17.5t-79 48.5t-53.5 74.5t-19.5 95.5t19.5 95.5t53.5 74.5t79 48.5t96 17.5t96 -17.5
t79 -48.5t53.5 -74.5t19.5 -95.5zM448 644q-5 -23 -14 -44.5t-22.5 -38t-33 -26.5t-46.5 -10q-22 0 -42.5 7.5t-39.5 17.5q-19 9 -35 16.5t-30 7.5q-21 0 -34 -14t-18 -33h-37q4 22 12.5 43t22.5 37t33.5 25.5t44.5 9.5t44.5 -7.5t37.5 -15.5q17 -9 34 -16.5t35 -7.5
q23 0 33 15.5t18 33.5h37z" />
    <glyph glyph-name="odieresis" unicode="&#xf6;" 
d="M398 222q0 109 -28.5 160.5t-91.5 51.5t-91.5 -51.5t-28.5 -160.5t28.5 -160.5t91.5 -51.5t91.5 51.5t28.5 160.5zM526 222q0 -52 -19.5 -95.5t-53.5 -74.5t-79 -48.5t-96 -17.5t-96 17.5t-79 48.5t-53.5 74.5t-19.5 95.5t19.5 95.5t53.5 74.5t79 48.5t96 17.5t96 -17.5
t79 -48.5t53.5 -74.5t19.5 -95.5zM375 634q24 0 41.5 -17t17.5 -42t-17.5 -42t-41.5 -17q-26 0 -42.5 17t-16.5 42t16.5 42t42.5 17zM169 516q-26 0 -42.5 17t-16.5 42t16.5 42t42.5 17q24 0 41.5 -17t17.5 -42t-17.5 -42t-41.5 -17z" />
    <glyph glyph-name="divide" unicode="&#xf7;" horiz-adv-x="600" 
d="M79 186v72h442v-72h-442zM237 404q0 26 19 44.5t44 18.5q26 0 44.5 -18.5t18.5 -44.5q0 -24 -18.5 -44t-43.5 -20q-26 0 -45 19t-19 45zM237 40q0 26 19 45t44 19q26 0 44.5 -19t18.5 -45q0 -12 -5 -23t-13.5 -20t-20 -14.5t-23.5 -5.5q-26 0 -45 18.5t-19 44.5z" />
    <glyph glyph-name="oslash" unicode="&#xf8;" 
d="M194 51q28 -41 84 -41q63 0 91.5 51.5t28.5 160.5q0 84 -16 132zM490 529l-69 -112q48 -31 76.5 -81t28.5 -114q0 -52 -19.5 -95.5t-53.5 -74.5t-79 -48.5t-96 -17.5q-59 0 -110 23l-67 -108h-44l78 126q-48 32 -76.5 82t-28.5 113q0 52 19.5 95.5t53.5 74.5t79 48.5
t96 17.5q59 0 110 -23l58 94h44zM362 393q-28 41 -84 41q-63 0 -91.5 -51.5t-28.5 -160.5q0 -84 16 -132z" />
    <glyph glyph-name="ugrave" unicode="&#xf9;" horiz-adv-x="611" 
d="M526 107q0 -23 17.5 -31t37.5 -13v-24q-43 -10 -84 -23.5t-83 -29.5v82q-34 -32 -77.5 -57t-92.5 -25q-78 0 -119.5 42t-41.5 120v235q0 23 -9.5 30t-47.5 7v24h169v-311q0 -19 7 -36t19.5 -29.5t29.5 -20t37 -7.5q32 0 61.5 12.5t64.5 44.5v286q0 12 -2 19t-8.5 11
t-20 5.5t-35.5 1.5v24h178v-337zM326 505l-165 101q-21 15 -21 39q0 16 13 27.5t30 11.5t29 -8t23 -19l141 -152h-50z" />
    <glyph glyph-name="uacute" unicode="&#xfa;" horiz-adv-x="611" 
d="M526 107q0 -23 17.5 -31t37.5 -13v-24q-43 -10 -84 -23.5t-83 -29.5v82q-34 -32 -77.5 -57t-92.5 -25q-78 0 -119.5 42t-41.5 120v235q0 23 -9.5 30t-47.5 7v24h169v-311q0 -19 7 -36t19.5 -29.5t29.5 -20t37 -7.5q32 0 61.5 12.5t64.5 44.5v286q0 12 -2 19t-8.5 11
t-20 5.5t-35.5 1.5v24h178v-337zM222 505l141 152q11 11 23 19t29 8t30 -11.5t13 -27.5q0 -24 -21 -39l-165 -101h-50z" />
    <glyph glyph-name="ucircumflex" unicode="&#xfb;" horiz-adv-x="611" 
d="M526 107q0 -23 17.5 -31t37.5 -13v-24q-43 -10 -84 -23.5t-83 -29.5v82q-34 -32 -77.5 -57t-92.5 -25q-78 0 -119.5 42t-41.5 120v235q0 23 -9.5 30t-47.5 7v24h169v-311q0 -19 7 -36t19.5 -29.5t29.5 -20t37 -7.5q32 0 61.5 12.5t64.5 44.5v286q0 12 -2 19t-8.5 11
t-20 5.5t-35.5 1.5v24h178v-337zM337 677l124 -172h-50l-113 100l-114 -100h-48l122 172h79z" />
    <glyph glyph-name="udieresis" unicode="&#xfc;" horiz-adv-x="611" 
d="M526 107q0 -23 17.5 -31t37.5 -13v-24q-43 -10 -84 -23.5t-83 -29.5v82q-34 -32 -77.5 -57t-92.5 -25q-78 0 -119.5 42t-41.5 120v235q0 23 -9.5 30t-47.5 7v24h169v-311q0 -19 7 -36t19.5 -29.5t29.5 -20t37 -7.5q32 0 61.5 12.5t64.5 44.5v286q0 12 -2 19t-8.5 11
t-20 5.5t-35.5 1.5v24h178v-337zM401 634q24 0 41.5 -17t17.5 -42t-17.5 -42t-41.5 -17q-26 0 -42.5 17t-16.5 42t16.5 42t42.5 17zM195 516q-26 0 -42.5 17t-16.5 42t16.5 42t42.5 17q24 0 41.5 -17t17.5 -42t-17.5 -42t-41.5 -17z" />
    <glyph glyph-name="yacute" unicode="&#xfd;" 
d="M12 444h253v-24q-9 0 -21.5 -1.5t-23 -4.5t-18 -8t-7.5 -12q0 -5 2.5 -12t4.5 -12l126 -257l109 244q4 8 5 13.5t1 12.5q0 17 -12 26t-48 11v24h157v-24q-31 -5 -46.5 -20.5t-26.5 -42.5l-203 -458q-7 -16 -15 -33t-18.5 -31.5t-25 -23.5t-35.5 -9q-26 0 -46 14.5
t-20 43.5q0 25 17.5 38.5t35.5 13.5q11 0 19.5 -2.5t16.5 -4.5q19 -7 27 -7q9 0 18 11t16 25t11 28.5t4 21.5l-185 387q-6 14 -13 22.5t-15.5 13.5t-19 7.5t-24.5 5.5v24zM201 505l141 152q11 11 23 19t29 8t30 -11.5t13 -27.5q0 -24 -21 -39l-165 -101h-50z" />
    <glyph glyph-name="thorn" unicode="&#xfe;" 
d="M194 88q14 -35 44 -56.5t69 -21.5q26 0 46 13.5t33.5 36.5t20.5 53t7 63q0 44 -10.5 82.5t-29 67t-45 44.5t-58.5 16q-20 0 -41.5 -7t-35.5 -22v-269zM194 737v-336q26 25 60.5 41t70.5 16q42 0 78.5 -15t63.5 -43.5t43 -69.5t16 -93q0 -56 -15 -102t-43.5 -79
t-68.5 -51.5t-91 -18.5q-27 0 -59 7t-55 27v-141q0 -13 2 -21t8.5 -12.5t18.5 -6.5t32 -2v-24h-227v24q17 0 27.5 2t16.5 6.5t8 12.5t2 21v721q0 17 -1.5 27.5t-7 17t-16 9.5t-29.5 5v24z" />
    <glyph glyph-name="ydieresis" unicode="&#xff;" 
d="M12 444h253v-24q-9 0 -21.5 -1.5t-23 -4.5t-18 -8t-7.5 -12q0 -5 2.5 -12t4.5 -12l126 -257l109 244q4 8 5 13.5t1 12.5q0 17 -12 26t-48 11v24h157v-24q-31 -5 -46.5 -20.5t-26.5 -42.5l-203 -458q-7 -16 -15 -33t-18.5 -31.5t-25 -23.5t-35.5 -9q-26 0 -46 14.5
t-20 43.5q0 25 17.5 38.5t35.5 13.5q11 0 19.5 -2.5t16.5 -4.5q19 -7 27 -7q9 0 18 11t16 25t11 28.5t4 21.5l-185 387q-6 14 -13 22.5t-15.5 13.5t-19 7.5t-24.5 5.5v24zM380 634q24 0 41.5 -17t17.5 -42t-17.5 -42t-41.5 -17q-26 0 -42.5 17t-16.5 42t16.5 42t42.5 17z
M174 516q-26 0 -42.5 17t-16.5 42t16.5 42t42.5 17q24 0 41.5 -17t17.5 -42t-17.5 -42t-41.5 -17z" />
    <glyph glyph-name="OE" unicode="&#x152;" horiz-adv-x="1000" 
d="M480 495q0 43 -4.5 80.5t-20.5 65.5t-45.5 44t-79.5 16q-38 0 -70.5 -12.5t-55.5 -49t-36 -102.5t-13 -173t13 -173t36 -102.5t55.5 -49t70.5 -12.5q50 0 79.5 16t45.5 44t20.5 65.5t4.5 80.5v262zM855 186h-24q-8 85 -61.5 125t-144.5 40v-324h64q62 0 102.5 10.5
t71.5 33t57.5 57t61.5 83.5l22 -12l-56 -199h-624q-59 0 -116.5 18.5t-104 61.5t-75 112.5t-28.5 171.5t28.5 171.5t75 112.5t104 61.5t116.5 18.5h586l76 -191l-18 -7q-34 43 -63.5 75t-59.5 53.5t-63 32t-73 10.5h-84v-323q34 0 69 7t64 24t49 45t24 71h24v-339z" />
    <glyph glyph-name="oe" unicode="&#x153;" horiz-adv-x="833" 
d="M373 222q0 113 -25 162.5t-84 49.5t-84 -49.5t-25 -162.5t25 -162.5t84 -49.5t84 49.5t25 162.5zM643 300q29 0 37.5 9t8.5 20q0 18 -7.5 37t-20.5 35t-30.5 26t-36.5 10q-28 0 -47.5 -13t-32 -33t-19 -44.5t-8.5 -46.5h156zM805 145q-30 -74 -82.5 -116.5t-136.5 -42.5
q-43 0 -82.5 17t-68.5 47q-42 -34 -82 -49t-73 -15q-53 0 -98.5 17.5t-80 48.5t-54 74.5t-19.5 95.5t19.5 95.5t53.5 74.5t79 48.5t96 17.5q42 0 85.5 -22t73.5 -54q35 40 73.5 58t89.5 18q40 0 77 -14.5t65 -40t44.5 -61t16.5 -77.5h-316q-2 -36 7.5 -70t29 -60.5t48 -42.5
t66.5 -16q52 0 88 21.5t67 62.5z" />
    <glyph glyph-name="Scaron" unicode="&#x160;" horiz-adv-x="667" 
d="M559 484h-25q-12 39 -32.5 79.5t-50 74.5t-67.5 55.5t-84 21.5q-23 0 -46.5 -7t-42.5 -20.5t-30.5 -33.5t-11.5 -47q0 -32 18.5 -55t49.5 -41.5t70.5 -34t80.5 -32.5t80 -36.5t70 -46.5t49.5 -62.5t18.5 -84.5q0 -65 -21 -109t-57.5 -70.5t-87 -37.5t-110.5 -11
q-29 0 -59.5 5t-57.5 10q-26 6 -46.5 11t-28.5 5q-9 0 -20.5 -9.5t-20.5 -19.5h-30v256h22q18 -46 39.5 -88t49.5 -73.5t65 -50.5t87 -19q31 0 61.5 7.5t53.5 22.5t37.5 36.5t14.5 50.5q0 37 -18.5 63.5t-49 46.5t-69 35.5t-78.5 32.5q-41 16 -79.5 35.5t-69 45.5t-49 62
t-18.5 86q0 49 19 87.5t51.5 64.5t74.5 39.5t87 13.5q36 0 67 -5.5t55 -13.5q24 -7 40.5 -13t24.5 -6q15 0 29.5 10t22.5 22h22v-252zM293 770l-122 172h48l114 -101l113 101h50l-124 -172h-79z" />
    <glyph glyph-name="scaron" unicode="&#x161;" horiz-adv-x="444" 
d="M390 289l-24 -2q-9 26 -22.5 52t-31.5 47t-41.5 34.5t-54.5 13.5q-26 0 -47.5 -18.5t-21.5 -47.5q0 -13 10 -24.5t28 -23t42 -24t53 -26.5q23 -12 46 -24.5t41.5 -29t30 -38t11.5 -50.5q0 -42 -16 -69t-42 -43.5t-60 -23t-70 -6.5q-16 0 -36.5 3t-42 8t-41.5 11t-35 13
l-9 151l24 4q7 -32 19.5 -62t32.5 -53t47.5 -37t63.5 -14q32 0 49 21t17 51q0 18 -11 32t-29 26t-41 23t-47 23q-24 11 -47 24t-41 29.5t-29 37.5t-11 48q0 34 17 59.5t43 41.5t57.5 24t60.5 8q38 0 77 -10.5t81 -26.5v-132zM181 505l-122 172h48l114 -101l113 101h50
l-124 -172h-79z" />
    <glyph glyph-name="Ydieresis" unicode="&#x178;" horiz-adv-x="889" 
d="M512 399l176 233q5 7 11.5 17t6.5 19q0 13 -15 23t-59 10v27h233v-27q-34 0 -57 -7t-41 -20.5t-33.5 -32.5t-33.5 -43l-176 -234v-242q0 -32 3 -51t14.5 -28.5t34.5 -12.5t62 -3v-27h-373v27q39 0 62 3t34.5 12.5t14.5 28.5t3 51v205l-239 331q-10 13 -17.5 21.5
t-18.5 13t-29.5 6.5t-49.5 2v27h377v-27q-48 -1 -66 -7.5t-19 -20.5q0 -5 5.5 -13.5t8.5 -13.5zM547 899q24 0 41.5 -17t17.5 -42t-17.5 -42t-41.5 -17q-26 0 -42.5 17t-16.5 42t16.5 42t42.5 17zM341 781q-26 0 -42.5 17t-16.5 42t16.5 42t42.5 17q24 0 41.5 -17t17.5 -42
t-17.5 -42t-41.5 -17z" />
    <glyph glyph-name="Zcaron" unicode="&#x17d;" horiz-adv-x="722" 
d="M221 27h155q74 0 123 21.5t82.5 52t56 64t43.5 57.5h16l-61 -222h-594v27l442 674h-177q-43 0 -80.5 -17.5t-69 -43.5t-57 -56.5t-44.5 -55.5l-22 1l58 199h580v-27zM320 770l-122 172h48l114 -101l113 101h50l-124 -172h-79z" />
    <glyph glyph-name="zcaron" unicode="&#x17e;" 
d="M535 188l-44 -188h-464v23l320 397h-88q-46 -2 -77 -9t-55 -23t-44 -41t-45 -62l-18 8l49 151h439v-8l-333 -412h123q40 0 70.5 12t56 33.5t47 53t44.5 70.5zM237 505l-122 172h48l114 -101l113 101h50l-124 -172h-79z" />
    <glyph glyph-name="florin" unicode="&#x192;" 
d="M116 406v39h106q4 71 20.5 126t43 93t62 58t77.5 20q20 0 41.5 -6t39 -18t29 -30t11.5 -42q0 -27 -18.5 -43t-44.5 -16q-31 0 -44 17.5t-18 39.5q-8 34 -14.5 48.5t-18.5 14.5q-14 0 -23.5 -22.5t-11.5 -78.5l-6 -161h109v-39h-111q-1 -23 -2.5 -60t-3.5 -80.5t-5.5 -90
t-8.5 -90t-13 -80t-18 -59.5q-27 -66 -67.5 -99.5t-113.5 -33.5q-18 0 -37 5t-34.5 15.5t-25.5 26t-10 37.5q0 29 17 46t48 17q28 0 41.5 -19t18.5 -39q6 -26 12 -40t18 -14q13 0 21.5 12.5t13.5 34t8.5 50t5.5 61.5q7 100 6.5 199.5t3.5 200.5h-104z" />
    <glyph glyph-name="circumflex" unicode="&#x2c6;" horiz-adv-x="278" 
d="M177 677l124 -172h-50l-113 100l-114 -100h-48l122 172h79z" />
    <glyph glyph-name="tilde" unicode="&#x2dc;" horiz-adv-x="278" 
d="M314 644q-5 -23 -14 -44.5t-22.5 -38t-33 -26.5t-46.5 -10q-22 0 -42.5 7.5t-39.5 17.5q-19 9 -35 16.5t-30 7.5q-21 0 -34 -14t-18 -33h-37q4 22 12.5 43t22.5 37t33.5 25.5t44.5 9.5t44.5 -7.5t37.5 -15.5q17 -9 34 -16.5t35 -7.5q23 0 33 15.5t18 33.5h37z" />
    <glyph glyph-name="endash" unicode="&#x2013;" horiz-adv-x="500" 
d="M0 187v70h500v-70h-500z" />
    <glyph glyph-name="emdash" unicode="&#x2014;" horiz-adv-x="1000" 
d="M0 257h1000v-70h-1000v70z" />
    <glyph glyph-name="quoteleft" unicode="&#x2018;" horiz-adv-x="278" 
d="M203 722q-3 -3 -14.5 -15t-24 -28t-22 -32t-9.5 -28q0 -11 13 -18.5t29 -18.5q15 -11 27.5 -27t12.5 -43q1 -29 -17 -48t-46 -22q-48 0 -69 27.5t-21 66.5q0 66 35.5 118t88.5 88z" />
    <glyph glyph-name="quoteright" unicode="&#x2019;" horiz-adv-x="278" 
d="M75 462q3 3 14.5 15t24 28t22 32t9.5 28q0 11 -13 18.5t-29 18.5q-15 11 -27.5 27t-12.5 43q-1 29 17 48t46 22q48 0 69 -27.5t21 -66.5q0 -66 -35.5 -118t-88.5 -88z" />
    <glyph glyph-name="quotesinglbase" unicode="&#x201a;" horiz-adv-x="278" 
d="M75 -142q3 3 14.5 15t24 28t22 32t9.5 28q0 11 -13 18.5t-29 18.5q-15 11 -27.5 27t-12.5 43q-1 29 17 48t46 22q48 0 69 -27.5t21 -66.5q0 -66 -35.5 -118t-88.5 -88z" />
    <glyph glyph-name="quotedblleft" unicode="&#x201c;" horiz-adv-x="500" 
d="M192 722q-3 -3 -14.5 -15t-24 -28t-22 -32t-9.5 -28q0 -11 13 -18.5t29 -18.5q15 -11 27.5 -27t12.5 -43q1 -29 -17 -48t-46 -22q-48 0 -69 27.5t-21 66.5q0 66 35.5 118t88.5 88zM436 722q-3 -3 -14.5 -15t-24 -28t-22 -32t-9.5 -28q0 -11 13 -18.5t29 -18.5
q15 -11 27.5 -27t12.5 -43q1 -29 -17 -48t-46 -22q-48 0 -69 27.5t-21 66.5q0 66 35.5 118t88.5 88z" />
    <glyph glyph-name="quotedblright" unicode="&#x201d;" horiz-adv-x="500" 
d="M64 462q3 3 14.5 15t24 28t22 32t9.5 28q0 11 -13 18.5t-29 18.5q-15 11 -27.5 27t-12.5 43q-1 29 17 48t46 22q48 0 69 -27.5t21 -66.5q0 -66 -35.5 -118t-88.5 -88zM308 462q3 3 14.5 15t24 28t22 32t9.5 28q0 11 -13 18.5t-29 18.5q-15 11 -27.5 27t-12.5 43
q-1 29 17 48t46 22q48 0 69 -27.5t21 -66.5q0 -66 -35.5 -118t-88.5 -88z" />
    <glyph glyph-name="quotedblbase" unicode="&#x201e;" horiz-adv-x="500" 
d="M64 -141q3 3 14.5 15t24 28t22 32t9.5 28q0 11 -13 18.5t-29 18.5q-15 11 -27.5 27t-12.5 43q-1 29 17 48t46 22q48 0 69 -27.5t21 -66.5q0 -66 -35.5 -118t-88.5 -88zM308 -141q3 3 14.5 15t24 28t22 32t9.5 28q0 11 -13 18.5t-29 18.5q-15 11 -27.5 27t-12.5 43
q-1 29 17 48t46 22q48 0 69 -27.5t21 -66.5q0 -66 -35.5 -118t-88.5 -88z" />
    <glyph glyph-name="dagger" unicode="&#x2020;" horiz-adv-x="500" 
d="M237 -83q0 55 -1.5 106t-6.5 100t-16 98t-30 101q29 37 41.5 82t10.5 93q-5 0 -13.5 -2t-17.5 -5.5t-17.5 -7t-13.5 -5.5q-22 -10 -38.5 -19t-39.5 -9t-35.5 18t-12.5 39t12.5 39t35.5 18t39.5 -9t38.5 -19q5 -2 13.5 -5.5t17.5 -6.5t17.5 -5t13.5 -1q0 23 -2.5 47
t-11.5 44q-8 20 -19 38t-11 41q2 26 18 40.5t40 14.5t40 -14.5t18 -40.5q0 -23 -11 -41t-19 -38q-9 -20 -11.5 -44t-2.5 -47q5 -1 13.5 1t17.5 5t17.5 6.5t13.5 5.5q22 10 38.5 19t39.5 9t35.5 -18t12.5 -39t-12.5 -39t-35.5 -18t-39.5 9t-38.5 19q-5 2 -13.5 5.5t-17.5 7
t-17.5 5.5t-13.5 2q-2 -48 10.5 -93t41.5 -82q-19 -52 -30 -101t-16 -98t-6.5 -100t-1.5 -106h-24z" />
    <glyph glyph-name="daggerdbl" unicode="&#x2021;" horiz-adv-x="500" 
d="M252 742q24 0 40 -14.5t18 -40.5q0 -23 -11 -41t-19 -38q-9 -20 -11.5 -44t-2.5 -47q5 -1 13.5 1t17.5 5t17.5 6.5t13.5 5.5q22 10 38.5 19t39.5 9t35.5 -18t12.5 -39t-12.5 -39t-35.5 -18t-39.5 9t-38.5 19q-5 2 -13.5 5.5t-17.5 7t-17.5 5.5t-13.5 2q-2 -48 10.5 -93
t41.5 -82q-29 -37 -41.5 -82t-10.5 -93q5 0 13.5 2t17.5 5.5t17.5 7t13.5 5.5q22 10 38.5 19t39.5 9t35.5 -18t12.5 -39t-12.5 -39t-35.5 -18t-39.5 9t-38.5 19q-5 2 -13.5 5.5t-17.5 6.5t-17.5 5t-13.5 1q0 -23 2.5 -47t11.5 -44q8 -20 19 -38t11 -41q-2 -26 -18 -40.5
t-40 -14.5t-40 14.5t-18 40.5q0 23 11 41t19 38q9 20 11.5 44t2.5 47q-5 1 -13.5 -1t-17.5 -5t-17.5 -6.5t-13.5 -5.5q-22 -10 -38.5 -19t-39.5 -9t-35.5 18t-12.5 39t12.5 39t35.5 18t39.5 -9t38.5 -19q5 -2 13.5 -5.5t17.5 -7t17.5 -5.5t13.5 -2q2 48 -10.5 93t-41.5 82
q29 37 41.5 82t10.5 93q-5 0 -13.5 -2t-17.5 -5.5t-17.5 -7t-13.5 -5.5q-22 -10 -38.5 -19t-39.5 -9t-35.5 18t-12.5 39t12.5 39t35.5 18t39.5 -9t38.5 -19q5 -2 13.5 -5.5t17.5 -6.5t17.5 -5t13.5 -1q0 23 -2.5 47t-11.5 44q-8 20 -19 38t-11 41q2 26 18 40.5t40 14.5z" />
    <glyph glyph-name="bullet" unicode="&#x2022;" horiz-adv-x="500" 
d="M437 374q0 -39 -14.5 -73t-40 -59.5t-59.5 -40t-73 -14.5t-73 14.5t-59.5 39.5t-40 59.5t-14.5 73.5t14 73t39.5 59.5t60 40t73.5 14.5t73 -14.5t59.5 -40t40 -59.5t14.5 -73z" />
    <glyph glyph-name="ellipsis" unicode="&#x2026;" horiz-adv-x="1000" 
d="M244 63q0 -32 -22.5 -54.5t-54.5 -22.5t-54.5 22.5t-22.5 54.5t22.5 54.5t54.5 22.5t54.5 -22.5t22.5 -54.5zM577 63q0 -32 -22.5 -54.5t-54.5 -22.5t-54.5 22.5t-22.5 54.5t22.5 54.5t54.5 22.5t54.5 -22.5t22.5 -54.5zM910 63q0 -32 -22.5 -54.5t-54.5 -22.5
t-54.5 22.5t-22.5 54.5t22.5 54.5t54.5 22.5t54.5 -22.5t22.5 -54.5z" />
    <glyph glyph-name="perthousand" unicode="&#x2030;" horiz-adv-x="1000" 
d="M791 71q0 -20 12 -39t35 -19q31 0 55.5 21.5t41 52.5t25 66t8.5 61q0 13 -2.5 28t-9.5 28t-18 21.5t-28 8.5q-29 0 -51 -27.5t-37 -65t-23 -76t-8 -60.5zM576 742l-450 -756h-49l398 670l-2 2q-24 -18 -55 -26.5t-62 -8.5q-14 0 -26.5 2t-24.5 7q3 -10 5 -20t2 -20
q0 -35 -11.5 -75.5t-33 -75.5t-53.5 -58t-74 -23q-64 0 -96.5 40.5t-32.5 100.5q0 39 14.5 76.5t40 67.5t61 48t76.5 18q23 0 44 -8.5t35 -25.5q12 -14 33 -20.5t38 -6.5q59 0 98 22.5t74 69.5h51zM695 125q0 39 14.5 76.5t40 67t61 47t76.5 17.5q55 0 81.5 -33.5
t26.5 -85.5q0 -38 -11 -78.5t-33.5 -73.5t-55.5 -54.5t-77 -21.5q-32 0 -55 10.5t-38 29.5t-22.5 44.5t-7.5 54.5zM107 449q0 -26 14.5 -44t40.5 -18q25 0 47 20t39 49t27 62t10 59q0 14 -2 32t-6 30q-40 17 -66 39q-14 2 -27 -13.5t-21 -31.5q-8 -15 -17.5 -35t-18 -43
t-14.5 -49.5t-6 -56.5zM335 125q0 39 14.5 76.5t40 67t61 47t76.5 17.5q55 0 81.5 -33.5t26.5 -85.5q0 -38 -11 -78.5t-33.5 -73.5t-55.5 -54.5t-77 -21.5q-32 0 -55 10.5t-38 29.5t-22.5 44.5t-7.5 54.5zM431 71q0 -20 12 -39t35 -19q31 0 55.5 21.5t41 52.5t25 66t8.5 61
q0 13 -2.5 28t-9.5 28t-18 21.5t-28 8.5q-28 0 -50 -27.5t-37.5 -65t-23.5 -76t-8 -60.5z" />
    <glyph glyph-name="guilsinglleft" unicode="&#x2039;" horiz-adv-x="333" 
d="M218 352q11 10 20 15t12 5q7 0 7 -11q0 -9 -12 -27l-82 -112l82 -113q6 -8 9 -15.5t3 -10.5q0 -11 -7 -11q-3 0 -12 5t-20 15l-149 130z" />
    <glyph glyph-name="guilsinglright" unicode="&#x203a;" horiz-adv-x="333" 
d="M115 92q-11 -10 -20 -15t-12 -5q-7 0 -7 11q0 9 12 27l82 112l-82 113q-6 8 -9 15.5t-3 10.5q0 11 7 11q3 0 12 -5t20 -15l149 -130z" />
    <glyph glyph-name="Euro" unicode="&#x20ac;" 
d="M531 494h-29q-9 40 -24 79.5t-36.5 70.5t-48.5 50.5t-59 19.5q-36 0 -60 -24.5t-38.5 -63t-21.5 -86.5t-9 -96h237l-13 -46h-225v-84h202l-13 -46h-186q10 -121 44 -185.5t91 -64.5q34 0 63 15t50 40t34 56.5t16 64.5h26q-10 -74 -38.5 -115.5t-62 -62t-64.5 -25.5
t-45 -5q-45 0 -85.5 20.5t-72.5 57.5t-54 89t-32 115h-62l13 46h44q-2 12 -2 24.5v25.5v17t1 17h-56l13 46h47q8 66 29.5 120.5t53.5 94t72.5 61.5t87.5 22q30 0 50.5 -7t37.5 -15l34 -17t37 -8q15 0 20 11.5t9 25.5h25v-238z" />
    <glyph glyph-name="trademark" unicode="&#x2122;" horiz-adv-x="990" 
d="M243 396q0 -16 0.5 -25t5 -14t15 -6.5t29.5 -2.5v-24h-186v24q19 1 29.5 2.5t15.5 6.5t5.5 14t0.5 25v308h-48q-30 0 -45 -19t-21 -45h-22v88h356v-88h-22q-6 26 -20.5 45t-44.5 19h-48v-308zM521 620h-2v-224q0 -23 8.5 -34.5t43.5 -13.5v-24h-132v24q34 1 42.5 13
t8.5 35v259q0 12 -6.5 21t-17 15.5t-23 10t-23.5 3.5v23h133l146 -296l154 296h114v-23q-35 -2 -45 -13.5t-10 -36.5v-259q0 -16 0.5 -25t5 -14t15 -6.5t29.5 -2.5v-24h-185v24q19 1 29.5 2.5t15 6.5t5 14t0.5 25v225h-2l-149 -298h-12z" />
    <glyph glyph-name="glyph199" horiz-adv-x="0" 
 />
    <glyph glyph-name="glyph200" horiz-adv-x="0" 
 />
    </font>
</defs>
</svg>
